<svg version="1.2" xmlns="http://www.w3.org/2000/svg" viewBox="0 0 50 50" width="50" height="50"><style>.a{fill:#fff}</style><path fill-rule="evenodd" class="a" d="m47 25c0 11.1-8.3 20.3-19 21.8l-1.2 0.1v-17.3h5.6l0.6-3.6h-6.2v-4c0-1.2 0.2-2.5 0.8-3.5 0.6-1 1.7-1.8 3.1-1.8h2.5v-2.9c-0.7-0.1-1.4-0.2-3.3-0.2-2.4 0-4.1 0.6-5.2 1.8-1.1 1.2-1.8 3.1-1.8 6v4.6h-5.2v3.6h5.2v17.3l-1.2-0.2c-10.6-1.6-18.7-10.7-18.7-21.7 0-12.1 9.9-22 22-22 12.1 0 22 9.9 22 22zm-42 0c0 9.6 6.8 17.6 15.9 19.5v-12.9h-5.2v-7.6h5.2v-2.6c0-3.2 0.8-5.7 2.4-7.4 1.6-1.6 3.9-2.4 6.6-2.4 2.4 0 3.8 0.2 4.4 0.3l0.9 0.1v6.7h-4.5c-0.7 0-1 0.2-1.3 0.8-0.4 0.6-0.6 1.5-0.6 2.5v2h6.5l-1.2 7.6h-5.3v12.9c9.2-1.8 16.2-9.8 16.2-19.5 0-11.1-8.9-20-20-20-11.1 0-20 8.9-20 20z"/></svg>