<svg version="1.2" xmlns="http://www.w3.org/2000/svg" viewBox="0 0 50 50" width="50" height="50"><style>.a{fill:#fff}</style><path fill-rule="evenodd" class="a" d="m34 3c7.2 0 13 5.8 13 13v18c0 7.2-5.8 13-13 13h-18c-7.2 0-13-5.8-13-13v-18c0-7.2 5.8-13 13-13zm-29 13v18c0 6.1 4.9 11 11 11h18c6.1 0 11-4.9 11-11v-18c0-6.1-4.9-11-11-11h-18c-6.1 0-11 4.9-11 11zm32.8-4.8q0.3 0.1 0.6 0.4 0.3 0.3 0.4 0.6 0.2 0.4 0.2 0.8 0 0.4-0.2 0.8-0.1 0.3-0.4 0.6-0.3 0.3-0.6 0.4-0.4 0.2-0.8 0.2-0.4 0-0.8-0.2-0.3-0.1-0.6-0.4-0.3-0.3-0.4-0.6-0.2-0.4-0.2-0.8 0-0.4 0.2-0.8 0.1-0.3 0.4-0.6 0.3-0.3 0.6-0.4 0.4-0.2 0.8-0.2 0.4 0 0.8 0.2zm-1.8 13.8c0 6.1-4.9 11-11 11-6.1 0-11-4.9-11-11 0-6.1 4.9-11 11-11 6.1 0 11 4.9 11 11zm-20 0c0 5 4 9 9 9 5 0 9-4 9-9 0-5-4-9-9-9-5 0-9 4-9 9z"/></svg>