<svg xmlns="http://www.w3.org/2000/svg" xmlns:xlink="http://www.w3.org/1999/xlink" width="140" height="132" viewBox="0 0 140 132">
  <defs>
    <clipPath id="clip-path">
      <path id="Path_459" data-name="Path 459" d="M692,881h13.721v17.109H692Zm0,0" transform="translate(-692 -881)"/>
    </clipPath>
    <filter id="Path_555" x="54.563" y="2.822" width="68.16" height="63.331" filterUnits="userSpaceOnUse">
      <feOffset dx="-4" dy="6" input="SourceAlpha"/>
      <feGaussianBlur stdDeviation="2" result="blur"/>
      <feFlood flood-opacity="0.404"/>
      <feComposite operator="in" in2="blur"/>
      <feComposite in="SourceGraphic"/>
    </filter>
    <filter id="Path_551" x="8.722" y="45.598" width="67.115" height="63.25" filterUnits="userSpaceOnUse">
      <feOffset dx="-4" dy="6" input="SourceAlpha"/>
      <feGaussianBlur stdDeviation="2" result="blur-2"/>
      <feFlood flood-opacity="0.396"/>
      <feComposite operator="in" in2="blur-2"/>
      <feComposite in="SourceGraphic"/>
    </filter>
  </defs>
  <g id="cleandata_logo" transform="translate(-180 -26)">
    <g id="Group_11199" data-name="Group 11199">
      <path id="Path_451" data-name="Path 451" d="M718.214,676.926l1.2,1.519a.656.656,0,0,1,.094.592.57.57,0,0,1-.094.176.389.389,0,0,1-.3.159h-3.524l1.167-1.087h1.322l-.56-.71Zm0,0" transform="translate(-473.449 -595.51)" fill="#ff3a67"/>
      <path id="Path_452" data-name="Path 452" d="M714.543,747.184l-15.97-20.249a.651.651,0,0,1,0-.768l10.722-13.6H688.59l1.167-1.087H710.33a.443.443,0,0,1,.4.335.656.656,0,0,1-.093.592l-11.15,14.139,15.666,19.865a.957.957,0,0,1,1.231.307,1.712,1.712,0,0,1,0,2.023.968.968,0,0,1-1.594,0A1.717,1.717,0,0,1,714.543,747.184Zm0,0" transform="translate(-450.381 -625.078)" fill="#ff3a67"/>
      <path id="Path_453" data-name="Path 453" d="M875.035,556.493H850.566l1.166-1.086h23.3a1.165,1.165,0,0,1,1.042-.887,1.471,1.471,0,0,1,0,2.86A1.163,1.163,0,0,1,875.035,556.493Zm0,0" transform="translate(-589.104 -490.783)" fill="#ff3a67"/>
      <path id="Path_454" data-name="Path 454" d="M906.963,530.1h-16.6a.383.383,0,0,1-.3-.159l-1.085-1.376.7-.651.867,1.1h16.426a1.161,1.161,0,0,1,1.043-.887,1.471,1.471,0,0,1,0,2.86A1.161,1.161,0,0,1,906.963,530.1Zm0,0" transform="translate(-621.963 -468.021)" fill="#ff3a67"/>
      <path id="Path_455" data-name="Path 455" d="M617.743,759.185a.961.961,0,0,1,1.232-.307L639.8,732.466a1.72,1.72,0,0,1,.243-1.561.969.969,0,0,1,1.595,0,1.712,1.712,0,0,1,0,2.021.959.959,0,0,1-1.232.309l-20.827,26.411a1.72,1.72,0,0,1-.243,1.561.97.97,0,0,1-1.6,0A1.714,1.714,0,0,1,617.743,759.185Zm0,0" transform="translate(-389.436 -641.336)" fill="#ff3a67"/>
      <path id="Path_456" data-name="Path 456" d="M732.51,833.474a1.713,1.713,0,0,1,0-2.022.969.969,0,0,1,1.595,0,1.719,1.719,0,0,1,.242,1.561l13.9,17.623a.961.961,0,0,1,1.232.308,1.718,1.718,0,0,1,0,2.023.97.97,0,0,1-1.6,0,1.724,1.724,0,0,1-.242-1.561l-13.9-17.623A.961.961,0,0,1,732.51,833.474Zm0,0" transform="translate(-487.676 -727.359)" fill="#ff3a67"/>
      <path id="Path_457" data-name="Path 457" d="M712.681,858.613a1.71,1.71,0,0,1,0-2.022.969.969,0,0,1,1.595,0,1.723,1.723,0,0,1,.243,1.562l12.2,15.471a.961.961,0,0,1,1.232.308,1.713,1.713,0,0,1,0,2.023.969.969,0,0,1-1.6,0,1.721,1.721,0,0,1-.243-1.562l-12.2-15.47A.96.96,0,0,1,712.681,858.613Zm0,0" transform="translate(-470.699 -748.867)" fill="#ff3a67"/>
      <g id="Group_11154" data-name="Group 11154" transform="translate(238.726 110.891)" clip-path="url(#clip-path)">
        <path id="Path_458" data-name="Path 458" d="M692.861,883.749a1.715,1.715,0,0,1,0-2.023.968.968,0,0,1,1.594,0,1.718,1.718,0,0,1,.243,1.561l9.773,12.394a.962.962,0,0,1,1.232.308,1.714,1.714,0,0,1,0,2.023.97.97,0,0,1-1.6,0,1.726,1.726,0,0,1-.242-1.562l-9.773-12.393A.961.961,0,0,1,692.861,883.749Zm0,0" transform="translate(-692.455 -881.262)" fill="#ff3a67"/>
      </g>
      <path id="Path_460" data-name="Path 460" d="M642.969,917.626a.959.959,0,0,1,1.232-.306l3.6-4.572a.369.369,0,0,1,.606,0l7.371,9.347a.96.96,0,0,1,1.231.307,1.712,1.712,0,0,1,0,2.022.968.968,0,0,1-1.594,0,1.72,1.72,0,0,1-.243-1.561L648.11,913.9l-3.3,4.188a1.722,1.722,0,0,1-.243,1.562.969.969,0,0,1-1.595,0A1.715,1.715,0,0,1,642.969,917.626Zm0,0" transform="translate(-411.02 -797.135)" fill="#ff3a67"/>
      <path id="Path_461" data-name="Path 461" d="M575.75,753.152a1.721,1.721,0,0,1-.243,1.562.969.969,0,0,1-1.595,0,1.715,1.715,0,0,1,0-2.023.959.959,0,0,1,1.232-.306l16.443-20.851a.39.39,0,0,1,.3-.159h4.685a1.163,1.163,0,0,1,1.043-.886,1.47,1.47,0,0,1,0,2.859,1.162,1.162,0,0,1-1.042-.887h-4.506Zm0,0" transform="translate(-351.913 -641.336)" fill="#ff3a67"/>
      <path id="Path_462" data-name="Path 462" d="M594.984,799.1a.961.961,0,0,1,1.232-.306l12.661-16.057a1.728,1.728,0,0,1,.243-1.563.97.97,0,0,1,1.6,0,1.712,1.712,0,0,1,0,2.023.961.961,0,0,1-1.232.308l-12.662,16.057a1.721,1.721,0,0,1-.243,1.562.969.969,0,0,1-1.6,0A1.714,1.714,0,0,1,594.984,799.1Zm0,0" transform="translate(-369.942 -684.346)" fill="#ff3a67"/>
      <path id="Path_463" data-name="Path 463" d="M556.245,754.959l9.492-12.035,5.351-4.983a1.7,1.7,0,0,1-.3,1.363.959.959,0,0,1-1.232.309l-12.709,16.115a1.723,1.723,0,0,1-.243,1.562.968.968,0,0,1-1.594,0,1.708,1.708,0,0,1,0-2.022A.959.959,0,0,1,556.245,754.959Zm0,0" transform="translate(-335.725 -647.713)" fill="#ff3a67"/>
      <path id="Path_464" data-name="Path 464" d="M871.1,665.3l-15.011-19.034a.651.651,0,0,1,0-.769l11.454-14.523a.389.389,0,0,1,.3-.159h13.062a1.162,1.162,0,0,1,1.042-.887,1.471,1.471,0,0,1,0,2.86,1.163,1.163,0,0,1-1.042-.887H868.022L857,645.883l14.708,18.651a.959.959,0,0,1,1.232.308,1.713,1.713,0,0,1,0,2.023.969.969,0,0,1-1.6,0A1.724,1.724,0,0,1,871.1,665.3Zm0,0" transform="translate(-593.721 -555.303)" fill="#ff3a67"/>
      <path id="Path_465" data-name="Path 465" d="M791.15,581.633H762.17l1.167-1.087H791.15a1.161,1.161,0,0,1,1.043-.886,1.47,1.47,0,0,1,0,2.859A1.162,1.162,0,0,1,791.15,581.633Zm-38.647,9,2.886,3.66a.959.959,0,0,1,1.232.307,1.714,1.714,0,0,1,0,2.023.969.969,0,0,1-1.595,0,1.721,1.721,0,0,1-.243-1.562l-2.979-3.777.7-.651Zm0,0" transform="translate(-504.607 -512.293)" fill="#ff3a67"/>
      <path id="Path_466" data-name="Path 466" d="M826.124,605.214a.97.97,0,0,1,1.595,0,1.715,1.715,0,0,1,0,2.023.961.961,0,0,1-1.232.307l-7.853,9.958a.389.389,0,0,1-.3.159h-4.684a1.162,1.162,0,0,1-1.042.888,1.47,1.47,0,0,1,0-2.86,1.162,1.162,0,0,1,1.043.886h4.506l7.727-9.8A1.72,1.72,0,0,1,826.124,605.214Zm0,0" transform="translate(-555.559 -533.799)" fill="#ff3a67"/>
      <path id="Path_467" data-name="Path 467" d="M775.083,610.234l-.415-.525.7-.65.2.248H785.8a1.163,1.163,0,0,1,1.043-.886,1.471,1.471,0,0,1,0,2.86,1.163,1.163,0,0,1-1.043-.887H775.385A.384.384,0,0,1,775.083,610.234ZM779,605.677h9.661a1.163,1.163,0,0,1,1.042-.888,1.471,1.471,0,0,1,0,2.861,1.162,1.162,0,0,1-1.043-.887l-10.829,0Zm0,0" transform="translate(-524.046 -533.793)" fill="#ff3a67"/>
      <path id="Path_468" data-name="Path 468" d="M791.645,656.5a1.308,1.308,0,0,1,1.128-1.432,1.165,1.165,0,0,1,1.044.888h3.641a1.162,1.162,0,0,1,1.042-.888,1.471,1.471,0,0,1,0,2.86,1.161,1.161,0,0,1-1.042-.886h-3.641a1.164,1.164,0,0,1-1.044.886A1.306,1.306,0,0,1,791.645,656.5Zm0,0" transform="translate(-538.565 -576.809)" fill="#ff3a67"/>
      <path id="Path_469" data-name="Path 469" d="M944.934,490.04h-6.865a.387.387,0,0,1-.3-.16l-3.072-3.894.7-.651,2.853,3.617h6.687a1.162,1.162,0,0,1,1.043-.886,1.471,1.471,0,0,1,0,2.861A1.162,1.162,0,0,1,944.934,490.04Zm0,0" transform="translate(-661.082 -431.594)" fill="#ff3a67"/>
      <path id="Path_470" data-name="Path 470" d="M911.841,504.3a1.043,1.043,0,0,1,.687.411,1.714,1.714,0,0,1,0,2.022.969.969,0,0,1-1.595,0,1.689,1.689,0,0,1-.306-1.3Zm0,0" transform="translate(-640.382 -447.814)" fill="#ff3a67"/>
      <path id="Path_471" data-name="Path 471" d="M891.1,666.379a.958.958,0,0,1,1.231-.307l7.116-9.023a1.725,1.725,0,0,1,.242-1.562.969.969,0,0,1,1.6,0,1.708,1.708,0,0,1,0,2.022.958.958,0,0,1-1.232.308l-7.115,9.023a1.713,1.713,0,0,1-.243,1.561.968.968,0,0,1-1.594,0A1.713,1.713,0,0,1,891.1,666.379Zm0,0" transform="translate(-623.427 -576.811)" fill="#ff3a67"/>
      <path id="Path_472" data-name="Path 472" d="M910.929,670.011a.961.961,0,0,1,1.232-.309l9.979-12.653a1.72,1.72,0,0,1,.242-1.562.969.969,0,0,1,1.595,0,1.713,1.713,0,0,1,0,2.023.958.958,0,0,1-1.231.307l-9.978,12.654a1.727,1.727,0,0,1-.243,1.562.969.969,0,0,1-1.595,0A1.713,1.713,0,0,1,910.929,670.011Zm0,0" transform="translate(-640.406 -576.811)" fill="#ff3a67"/>
      <path id="Path_473" data-name="Path 473" d="M930.749,675.31a.962.962,0,0,1,1.232-.307L944.6,659a1.722,1.722,0,0,1,.243-1.562.97.97,0,0,1,1.595,0,1.713,1.713,0,0,1,0,2.023.962.962,0,0,1-1.232.307l-12.621,16a1.723,1.723,0,0,1-.243,1.562.969.969,0,0,1-1.595,0A1.714,1.714,0,0,1,930.749,675.31Zm0,0" transform="translate(-657.424 -578.48)" fill="#ff3a67"/>
      <path id="Path_474" data-name="Path 474" d="M955.518,729.894a.44.44,0,0,1-.4-.337.65.65,0,0,1,.093-.591l9.643-12.228a1.717,1.717,0,0,1,.243-1.563.969.969,0,0,1,1.595,0,1.713,1.713,0,0,1,0,2.023.962.962,0,0,1-1.232.309l-8.913,11.3h4.4a1.162,1.162,0,0,1,1.042-.888,1.471,1.471,0,0,1,0,2.861,1.162,1.162,0,0,1-1.043-.887Zm0,0" transform="translate(-678.531 -627.877)" fill="#ff3a67"/>
      <path id="Path_475" data-name="Path 475" d="M965.992,827.885a1.713,1.713,0,0,1,0-2.023.969.969,0,0,1,1.6,0,1.723,1.723,0,0,1,.243,1.562l.309.393a.958.958,0,0,1,1.232.307,1.713,1.713,0,0,1,0,2.023.969.969,0,0,1-1.595,0,1.716,1.716,0,0,1-.243-1.562l-.309-.392A.96.96,0,0,1,965.992,827.885Zm0,0" transform="translate(-687.517 -722.576)" fill="#ff3a67"/>
      <path id="Path_476" data-name="Path 476" d="M963.2,456.825a1.162,1.162,0,0,1-1.043-.887h-3.61l1.166-1.086h2.444a1.163,1.163,0,0,1,1.043-.887,1.471,1.471,0,0,1,0,2.861Zm0,0" transform="translate(-681.434 -404.754)" fill="#ff3a67"/>
      <path id="Path_477" data-name="Path 477" d="M974.811,481.963a1.162,1.162,0,0,1-1.042-.887H972.24a1.159,1.159,0,0,1-1.042.886,1.471,1.471,0,0,1,0-2.86,1.16,1.16,0,0,1,1.041.887h1.529a1.162,1.162,0,0,1,1.042-.886,1.47,1.47,0,0,1,0,2.86Zm0,0" transform="translate(-691.295 -426.26)" fill="#ff3a67"/>
      <path id="Path_478" data-name="Path 478" d="M961.362,606.764h-8.943a1.161,1.161,0,0,1-1.042.885,1.47,1.47,0,0,1,0-2.859,1.159,1.159,0,0,1,1.042.886h8.943a1.164,1.164,0,0,1,1.043-.888,1.471,1.471,0,0,1,0,2.861A1.162,1.162,0,0,1,961.362,606.764Zm0,0" transform="translate(-674.391 -533.793)" fill="#ff3a67"/>
      <path id="Path_479" data-name="Path 479" d="M831.114,849.449l-5.959-7.556h-5.548a.385.385,0,0,1-.3-.159L816.44,838.1a.653.653,0,0,1-.093-.591.442.442,0,0,1,.4-.335H828.2a.39.39,0,0,1,.3.159l6.422,8.144a.96.96,0,0,1,1.232.306,1.713,1.713,0,0,1,0,2.023.969.969,0,0,1-1.6,0,1.721,1.721,0,0,1-.243-1.561l-6.3-7.983H817.778l2.007,2.543h5.548a.386.386,0,0,1,.3.16l6.085,7.715a.96.96,0,0,1,1.232.307,1.712,1.712,0,0,1,0,2.022.969.969,0,0,1-1.6,0A1.716,1.716,0,0,1,831.114,849.449Zm0,0" transform="translate(-559.711 -732.615)" fill="#ff3a67"/>
      <path id="Path_480" data-name="Path 480" d="M804.227,808.755a1.162,1.162,0,0,1-1.043-.886h-9.368a1.165,1.165,0,0,1-1.044.886,1.471,1.471,0,0,1,0-2.86,1.165,1.165,0,0,1,1.044.887h9.368a1.161,1.161,0,0,1,1.043-.886,1.471,1.471,0,0,1,0,2.86Zm0,0" transform="translate(-538.576 -705.852)" fill="#ff3a67"/>
      <path id="Path_481" data-name="Path 481" d="M821.429,760.137a1.164,1.164,0,0,1,1.043-.886,1.471,1.471,0,0,1,0,2.861,1.164,1.164,0,0,1-1.043-.886h-4.683a.442.442,0,0,1-.4-.336.653.653,0,0,1,.093-.592l2.126-2.7a1.716,1.716,0,0,1,.244-1.561.967.967,0,0,1,1.594,0,1.713,1.713,0,0,1,0,2.023.961.961,0,0,1-1.231.307l-1.4,1.769Zm0,0" transform="translate(-559.682 -662.838)" fill="#ff3a67"/>
      <path id="Path_482" data-name="Path 482" d="M851.459,883.751a1.715,1.715,0,0,1,0-2.023.969.969,0,0,1,1.595,0,1.719,1.719,0,0,1,.243,1.562l4.731,6a.96.96,0,0,1,1.232.308,1.711,1.711,0,0,1,0,2.023.969.969,0,0,1-1.6,0,1.725,1.725,0,0,1-.243-1.562l-4.731-6A.96.96,0,0,1,851.459,883.751Zm0,0" transform="translate(-589.485 -770.375)" fill="#ff3a67"/>
      <path id="Path_483" data-name="Path 483" d="M604.555,784.177c-.165-.535-.1-.741.175-.983.35-.309.608-.313.867-.015Zm0,0" transform="translate(-378.328 -686.229)" fill="#fff" fill-rule="evenodd"/>
      <path id="Path_484" data-name="Path 484" d="M567.856,730.434a33.659,33.659,0,0,0,2.468,8.19q.059.126.111.24l-.746.717-.49.472a16.347,16.347,0,0,1-.983-2.375,33.666,33.666,0,0,1-1.669-5.9c-.359-1.8-.431-2.544-.278-2.79C567.291,727.41,567.75,729.783,567.856,730.434Zm0,0" transform="translate(-345.566 -639.598)" fill="#727272" fill-rule="evenodd"/>
      <path id="Path_485" data-name="Path 485" d="M542.807,711.123c.314.2.3.1.53,2.563a34.015,34.015,0,0,0,1.9,8.748,10.446,10.446,0,0,1,.395,1.173c.116.5.116.5-.126.728-.61.548-1.005.4-1.427-.548a15.866,15.866,0,0,1-1.05-3.169,35.232,35.232,0,0,1-1.319-7.84c-.045-.86-.036-1.1.09-1.343C542.053,710.924,542.349,710.83,542.807,711.123Zm0,0" transform="translate(-324.591 -624.627)" fill="#727272" fill-rule="evenodd"/>
      <path id="Path_486" data-name="Path 486" d="M518.44,674.307c.314.256.35.5.35,2.5a48.348,48.348,0,0,0,.592,8.351,37.833,37.833,0,0,0,1.176,5.333,35.318,35.318,0,0,0,1.741,4.71,5.744,5.744,0,0,1,.44,1.173,1.1,1.1,0,0,1-.772.851c-.529.1-.672-.1-1.66-2.525a40.6,40.6,0,0,1-2.235-7.745,44.657,44.657,0,0,1-.781-8.7l-.045-3.452.27-.312A.657.657,0,0,1,518.44,674.307Zm0,0" transform="translate(-303.623 -593.164)" fill="#727272" fill-rule="evenodd"/>
      <path id="Path_487" data-name="Path 487" d="M565.228,669.048l.252.265.054,2.677c.072,2.941.072,2.96-.476,3.253a.621.621,0,0,1-.907-.274c-.152-.274-.17-.511-.17-2.979v-2.677l.3-.312C564.626,668.632,564.833,668.641,565.228,669.048Zm0,0" transform="translate(-343.673 -588.502)" fill="#727272" fill-rule="evenodd"/>
      <path id="Path_488" data-name="Path 488" d="M588.446,651.643l.26.236v4.634a51.8,51.8,0,0,0,.153,5.911c.143,1.135.467,3.017.691,3.963.2.851.206.832-.09,1.192a.69.69,0,0,1-.566.331c-.538,0-.682-.293-1.032-1.948a40.515,40.515,0,0,1-.763-9.637C587.1,656.005,586.689,650.056,588.446,651.643Zm0,0" transform="translate(-363.429 -573.65)" fill="#727272" fill-rule="evenodd"/>
      <path id="Path_489" data-name="Path 489" d="M543.511,606.582c.269.189.261.7-.026,1.976a52.748,52.748,0,0,0-.835,8.549c-.072,1.258-.09,1.372-.278,1.532a.936.936,0,0,1-.547.18c-.682,0-.79-.539-.638-3.178A54.137,54.137,0,0,1,542,608.18c.224-1,.323-1.277.61-1.589C542.874,606.308,543.1,606.308,543.511,606.582Zm0,0" transform="translate(-324.11 -535.152)" fill="#727272" fill-rule="evenodd"/>
      <path id="Path_490" data-name="Path 490" d="M757.738,633.01a.747.747,0,0,1-.208-.833,1.9,1.9,0,0,1,2.24-1.093Zm0,0" transform="translate(-509.312 -556.266)" fill="#6c6c6c" fill-rule="evenodd"/>
      <path id="Path_491" data-name="Path 491" d="M735.831,603.585a7.316,7.316,0,0,1,1.167.577,2.678,2.678,0,0,1,.729.568l-.958.891.067-.1.386-.408-.62.587-.046.043-.07-.043a3.591,3.591,0,0,0-2.423-.69,2.776,2.776,0,0,0-2.226,1,6.452,6.452,0,0,0-1.445,2.78,11.6,11.6,0,0,0-.427,3.156l-1.517,1.412-.135.126a22.975,22.975,0,0,1,.795-5.716,7.979,7.979,0,0,1,2.145-3.357,3.547,3.547,0,0,1,1.409-.8A5.643,5.643,0,0,1,735.831,603.585Zm0,0" transform="translate(-484.352 -532.58)" fill="#727272" fill-rule="evenodd"/>
      <path id="Path_492" data-name="Path 492" d="M593.493,603.228c.234.246.216.624-.063,1.57-.117.406-.3,1.125-.386,1.6-.188.965-.359,1.229-.9,1.334-.3.056-.359.038-.547-.19-.279-.35-.269-.662.1-2.213.386-1.617.421-1.712.781-2.09.243-.256.332-.3.565-.256A1,1,0,0,1,593.493,603.228Zm0,0" transform="translate(-367.15 -532.232)" fill="#727272" fill-rule="evenodd"/>
      <path id="Path_493" data-name="Path 493" d="M568.4,601.167c.359.312.35.454-.036,1.976a39.547,39.547,0,0,0-.852,4.54c-.135,1.022-.2,1.154-.583,1.334-.413.179-.431.17-.763-.123-.287-.246-.287-.265-.233-.87a42.773,42.773,0,0,1,1.229-6.289C567.571,600.893,567.913,600.732,568.4,601.167Zm0,0" transform="translate(-345.318 -530.494)" fill="#727272" fill-rule="evenodd"/>
      <path id="Path_494" data-name="Path 494" d="M613.064,594.564a.989.989,0,0,1,.305.416,6.777,6.777,0,0,1-.314,1.579,41.3,41.3,0,0,0-1.373,11.339,39,39,0,0,0,.8,8.729,23.885,23.885,0,0,0,.7,2.589l-.116.111-1.122,1.073a33.8,33.8,0,0,1-1.764-9.853,51.744,51.744,0,0,1,.637-10.876c.09-.445.243-1.22.35-1.721.449-2.242.647-2.837,1.069-3.319C612.517,594.327,612.723,594.309,613.064,594.564Zm0,0" transform="translate(-383.173 -524.893)" fill="#727272" fill-rule="evenodd"/>
      <path id="Path_495" data-name="Path 495" d="M637.26,591.238c.323.331.287.737-.17,1.967a33.993,33.993,0,0,0-1.5,8.323c-.063.87-.081,2.639-.054,4.511a24.677,24.677,0,0,0,.359,5.032c.179,1.085.321,1.886.473,2.57l-1.277,1.219a23.8,23.8,0,0,1-.622-2.579,33.3,33.3,0,0,1-.521-7.093,38.472,38.472,0,0,1,.494-7.405,27.717,27.717,0,0,1,.934-4.18,6.387,6.387,0,0,1,.88-2.392A.67.67,0,0,1,637.26,591.238Zm0,0" transform="translate(-403.567 -521.992)" fill="#727272" fill-rule="evenodd"/>
      <path id="Path_496" data-name="Path 496" d="M715.206,576.817a9.2,9.2,0,0,1,5.136,2.632l-1.157,1.075c-2.846-2.687-6.866-2.92-9.3-.5a9.144,9.144,0,0,0-2.3,3.67,19.6,19.6,0,0,0-1.194,6.961c-.027.635-.041,1.282-.043,1.927l-1.488,1.414c0-.412-.005-.856,0-1.337a24.749,24.749,0,0,1,.234-4.946,18.534,18.534,0,0,1,1.588-5.665,9.165,9.165,0,0,1,1.948-2.969,7,7,0,0,1,2.944-1.92A7.637,7.637,0,0,1,715.206,576.817Zm0,0" transform="translate(-464.281 -509.793)" fill="#727272" fill-rule="evenodd"/>
      <path id="Path_497" data-name="Path 497" d="M624.181,559.214c.332.293.341.492.081,1.06-.287.614-.736,1.059-1.059,1.059-.278,0-.808-.473-.808-.719a3.035,3.035,0,0,1,.691-1.267C623.472,558.892,623.777,558.855,624.181,559.214Zm0,0" transform="translate(-393.676 -494.594)" fill="#727272" fill-rule="evenodd"/>
      <path id="Path_498" data-name="Path 498" d="M695.812,552.127a12.333,12.333,0,0,1,2.818,1.05,13.034,13.034,0,0,1,3.53,2.617l-1.179,1.095a10.37,10.37,0,0,0-8.312-3.362,8.952,8.952,0,0,0-7.512,4.464,19.075,19.075,0,0,0-2.576,7.424,33.33,33.33,0,0,0-.4,6.431c0,1.112.014,1.959.045,2.672l-1.438,1.368a21.8,21.8,0,0,1-.222-3.993,33.158,33.158,0,0,1,.4-5.864,23.022,23.022,0,0,1,2.935-8.843,10.983,10.983,0,0,1,7.781-5.239A24.31,24.31,0,0,1,695.812,552.127Zm0,0" transform="translate(-443.495 -488.557)" fill="#727272" fill-rule="evenodd"/>
      <path id="Path_499" data-name="Path 499" d="M674.951,525.759a15.489,15.489,0,0,1,6.956,2.733,14.344,14.344,0,0,1,2.947,2.519l-1.14,1.057a18.012,18.012,0,0,0-1.4-1.315,13.714,13.714,0,0,0-10.232-3.395,10.225,10.225,0,0,0-3.258.785,13.039,13.039,0,0,0-3.141,1.759c-3.626,2.677-5.753,7.481-6.579,14.867a61.547,61.547,0,0,0-.054,8.512c.08.609.166,1.184.262,1.73l-1.318,1.255c-.129-.623-.236-1.257-.318-1.9a47.715,47.715,0,0,1,.09-11.207,35.972,35.972,0,0,1,2-7.774,13.977,13.977,0,0,1,1.705-3.225,19.162,19.162,0,0,1,3.743-3.868,13.247,13.247,0,0,1,6.911-2.563A16.778,16.778,0,0,1,674.951,525.759Zm0,0" transform="translate(-423.663 -466.113)" fill="#727272" fill-rule="evenodd"/>
      <path id="Path_500" data-name="Path 500" d="M844.4,502.368a28.451,28.451,0,0,1,4.2,3.787l-1.158,1.07a28.208,28.208,0,0,0-2.468-2.389c-.521-.435-1.1-.917-1.293-1.078a1.891,1.891,0,0,1-.682-1.031c0-.227.485-.747.691-.747A2.348,2.348,0,0,1,844.4,502.368Zm0,0" transform="translate(-582.525 -445.834)" fill="#727272" fill-rule="evenodd"/>
      <path id="Path_501" data-name="Path 501" d="M675.085,500.89a14.012,14.012,0,0,1,3.976,1.031,12.286,12.286,0,0,1,2.953,1.466c2.038,1.267,4.4,3.3,4.712,4.067l.029.069-.966.895a11.525,11.525,0,0,1-1.054-.955,19.461,19.461,0,0,0-6.508-4.161,14.487,14.487,0,0,0-4.982-.88,12.913,12.913,0,0,0-4.837.548,14.106,14.106,0,0,0-4.3,1.919,21.14,21.14,0,0,0-5.179,5.041,12.247,12.247,0,0,1-1.068,1.362c-.574.322-1.185-.256-1-.937a23.463,23.463,0,0,1,3.169-4.095,16.334,16.334,0,0,1,3.761-3.017,23.171,23.171,0,0,1,4.47-1.976,15.233,15.233,0,0,1,2.71-.416A32.63,32.63,0,0,1,675.085,500.89Zm0,0" transform="translate(-423.192 -444.828)" fill="#727272" fill-rule="evenodd"/>
      <path id="Path_502" data-name="Path 502" d="M910.065,497.038a.409.409,0,0,1,.043.032l-1.1,1.012a.757.757,0,0,1,.221-.921C909.589,496.782,909.652,496.773,910.065,497.038Zm0,0" transform="translate(-638.951 -441.449)" fill="#fff" fill-rule="evenodd"/>
      <path id="Path_503" data-name="Path 503" d="M860.993,485.133a19.98,19.98,0,0,1,2.648,2.326c.916.937,1.005,1.06,1.005,1.372a.663.663,0,0,1-.278.587c-.44.388-.647.331-1.373-.4-.35-.359-1.149-1.106-1.786-1.664-1.212-1.078-1.364-1.277-1.284-1.607C860.068,485.152,860.536,484.887,860.993,485.133Zm0,0" transform="translate(-596.991 -431.342)" fill="#727272" fill-rule="evenodd"/>
      <path id="Path_504" data-name="Path 504" d="M661.871,474.954c2.145.4,4.6,1.192,5.017,1.627a.78.78,0,0,1,.063,1.069c-.251.331-.458.322-1.786-.132a17.112,17.112,0,0,0-6.686-1.173,14.911,14.911,0,0,0-4.443.529,28.835,28.835,0,0,0-4.219,1.495,26.348,26.348,0,0,0-4.829,3.386c-.53.492-2.119,2.26-3.07,3.414-.539.653-.862.728-1.2.256a.849.849,0,0,1-.09-1.031,30.506,30.506,0,0,1,2.9-3.358c.224-.189.547-.492.718-.662a26.069,26.069,0,0,1,2.11-1.721,6.188,6.188,0,0,0,.655-.416,27.632,27.632,0,0,1,3.447-1.844,24.729,24.729,0,0,1,6.184-1.618A25.856,25.856,0,0,1,661.871,474.954Zm0,0" transform="translate(-409.199 -422.504)" fill="#727272" fill-rule="evenodd"/>
      <path id="Path_505" data-name="Path 505" d="M617.108,449.434a16.921,16.921,0,0,1,4.362,1.154,18.122,18.122,0,0,1,3.689,1.788c.583.416.637.747.206,1.267-.368.435-.592.425-1.338-.047a21.407,21.407,0,0,0-3.6-1.7c-.368-.1-1.418-.359-2.343-.568a20.56,20.56,0,0,0-10.124.152,22.894,22.894,0,0,0-9.99,5.353,43.939,43.939,0,0,0-3.518,3.793,35.5,35.5,0,0,0-4.479,7.3c-.44.974-.727,1.381-1.149,1.617-.233.123-.26.113-.538-.142-.4-.379-.386-.728.134-1.816a37.237,37.237,0,0,1,8.186-11.538,27.322,27.322,0,0,1,10.1-5.93,28.324,28.324,0,0,1,5.341-.908A36.665,36.665,0,0,1,617.108,449.434Zm0,0" transform="translate(-364.281 -400.664)" fill="#727272" fill-rule="evenodd"/>
      <path id="Path_506" data-name="Path 506" d="M588.353,424.3a1.325,1.325,0,0,1,.341.463c.1.246.081.322-.081.568-.206.3-.52.435-1.266.53a25.769,25.769,0,0,0-8.329,2.856,36.476,36.476,0,0,0-4.183,2.762,42.744,42.744,0,0,0-5.484,5.674,45.517,45.517,0,0,0-2.782,4.171c-.189.341-.4.681-.449.757a37.426,37.426,0,0,0-2.073,4.322c-.655,1.712-.843,2.014-1.266,2.014a.819.819,0,0,1-.449-.246c-.332-.35-.261-1.021.215-1.995.2-.407.521-1.126.709-1.589a28.558,28.558,0,0,1,1.4-2.941,37.446,37.446,0,0,1,6.8-9.1,32.639,32.639,0,0,1,5.7-4.53c.35-.19.871-.5,1.167-.7a8.673,8.673,0,0,1,1.238-.643c.386-.161.907-.407,1.158-.539a27.39,27.39,0,0,1,7.037-2.015A.836.836,0,0,1,588.353,424.3Zm0,0" transform="translate(-342.108 -379.219)" fill="#727272" fill-rule="evenodd"/>
      <path id="Path_507" data-name="Path 507" d="M543.39,423.525a.943.943,0,0,1,.143,1.542.692.692,0,0,1-1.1-.047.97.97,0,0,1,.026-1.3A.7.7,0,0,1,543.39,423.525Zm0,0" transform="translate(-324.963 -378.623)" fill="#727272" fill-rule="evenodd"/>
      <path id="Path_508" data-name="Path 508" d="M765.479,422.867a27.779,27.779,0,0,1,13.464,6.412c1.1.917,1.328,1.173,1.328,1.475a1.391,1.391,0,0,1-.629.861c-.242.085-.43-.047-1.705-1.135a23.963,23.963,0,0,0-2.872-2.147,33.031,33.031,0,0,0-4.6-2.374,22.307,22.307,0,0,0-7.019-1.627c-1.032-.085-1.939-.17-1.993-.189a1.447,1.447,0,0,1-.476-.87.8.8,0,0,1,.287-.454l.3-.265,1.346.066C763.639,422.658,764.8,422.772,765.479,422.867Zm0,0" transform="translate(-512.329 -377.879)" fill="#727272" fill-rule="evenodd"/>
      <path id="Path_509" data-name="Path 509" d="M809.025,403.511a32.816,32.816,0,0,1,9.721,4.965,55.847,55.847,0,0,1,6.661,6.113l-1.127,1.035-.056.051a52.609,52.609,0,0,0-5.191-4.995,36.6,36.6,0,0,0-6.552-4.095c-.494-.218-1.023-.464-1.176-.53a24.984,24.984,0,0,0-3.132-1.04c-.889-.208-1.212-.473-1.212-1.012a.794.794,0,0,1,.234-.615c.206-.217.278-.236.646-.179A9,9,0,0,1,809.025,403.511Zm0,0" transform="translate(-551.697 -361.305)" fill="#727272" fill-rule="evenodd"/>
      <path id="Path_510" data-name="Path 510" d="M557.205,397.034a1.114,1.114,0,0,1,.646.378.718.718,0,0,1-.009,1.088c-.242.246-.3.265-.745.217a25.074,25.074,0,0,0-6.624-.019,31.818,31.818,0,0,0-10.663,3.65c-.7.416-1.364.814-1.481.88a31.582,31.582,0,0,0-4.551,3.528,42.3,42.3,0,0,0-5.52,6.308c-.2.3-.529.785-.727,1.078a51.213,51.213,0,0,0-2.612,4.474c-.665,1.3-2.45,5.211-2.45,5.362,0,.047-.216.653-.485,1.352s-.583,1.617-.709,2.043a49.7,49.7,0,0,0-1.1,4.88c-.2,1.239-.386,1.618-.853,1.646a.769.769,0,0,1-.789-.539c-.171-.482.314-3.158,1.032-5.722a67.93,67.93,0,0,1,3.151-8.02c.143-.275.494-.965.781-1.532s.655-1.258.808-1.513.422-.709.592-1c.637-1.116,2.54-3.991,3.249-4.9.449-.577.718-.9,2.2-2.638a39.011,39.011,0,0,1,7.827-6.526c.825-.511,2.854-1.589,3.725-1.967a38.288,38.288,0,0,1,4.6-1.655,45.894,45.894,0,0,1,5.179-.926A43.511,43.511,0,0,1,557.205,397.034Zm0,0" transform="translate(-304.699 -355.934)" fill="#727272" fill-rule="evenodd"/>
      <path id="Path_511" data-name="Path 511" d="M786.238,372.89a34.034,34.034,0,0,1,14.361,6.526,32.33,32.33,0,0,1,4.892,4.426c.162.322.171.368.045.605a.86.86,0,0,1-.862.454,5.589,5.589,0,0,1-1.051-.842c-.951-.908-3.4-3-4.057-3.471-.243-.17-.566-.416-.7-.539a41.408,41.408,0,0,0-4.147-2.516,27.905,27.905,0,0,0-4.308-1.816,25.105,25.105,0,0,0-5.969-1.428c-1.014-.142-1.382-.833-.79-1.447C783.994,372.493,783.922,372.493,786.238,372.89Zm0,0" transform="translate(-531.51 -335.129)" fill="#727272" fill-rule="evenodd"/>
      <path id="Path_512" data-name="Path 512" d="M559.582,372.016a.688.688,0,0,1,.09.917c-.225.341-.413.4-1.669.492a34.036,34.036,0,0,0-19.585,9.126c-1.149,1.106-3.078,3.168-3.68,3.925a46.559,46.559,0,0,0-5.762,8.918c-.943,1.882-1.2,2.26-1.544,2.2-.135-.019-.269-.047-.305-.047a1.7,1.7,0,0,1-.43-.842,32,32,0,0,1,1.992-4.133,43.835,43.835,0,0,1,7.163-9.5,32.487,32.487,0,0,1,4.577-4.171,31.145,31.145,0,0,1,5.116-3.253,29.831,29.831,0,0,1,6.642-2.733,26.025,26.025,0,0,1,6.57-1.183C559.313,371.723,559.366,371.742,559.582,372.016Zm0,0" transform="translate(-311.78 -334.396)" fill="#727272" fill-rule="evenodd"/>
      <path id="Path_513" data-name="Path 513" d="M571.423,367.978c.494.567.3.926-1.059,1.91-1.589,1.163-2.9,2.213-4.156,3.31-.628.548-1.22,1.04-1.31,1.1a.6.6,0,0,1-.745-.322c-.269-.435-.2-.671.413-1.3a41.77,41.77,0,0,1,3.609-3.036C570.93,367.627,571.055,367.561,571.423,367.978Zm0,0" transform="translate(-343.697 -331.01)" fill="#727272" fill-rule="evenodd"/>
      <path id="Path_514" data-name="Path 514" d="M893.783,358.258c.6.359,2.765,1.892,3.931,2.78a30.2,30.2,0,0,1,5.054,4.634.435.435,0,0,1-.054.529c-.216.369-.395.492-.682.5-.269,0-.5-.179-1.589-1.258a46.908,46.908,0,0,0-3.644-3.177c-1.185-.88-2.872-2.062-3.232-2.251a5.212,5.212,0,0,1-.754-.568c-.494-.463-.547-.87-.152-1.229C892.975,357.936,893.281,357.946,893.783,358.258Zm0,0" transform="translate(-624.819 -322.662)" fill="#727272" fill-rule="evenodd"/>
      <path id="Path_515" data-name="Path 515" d="M581.458,345.284a24.686,24.686,0,0,1,5.063.937,35.074,35.074,0,0,1,10.869,4.852,19.371,19.371,0,0,1,2.289,1.589c.368.3,1.167.955,1.768,1.447a42.6,42.6,0,0,1,4.828,4.549c.636.673,1.138,1.215,1.526,1.652l-1.159,1.065-.043-.05A45.893,45.893,0,0,0,602.371,357a40.146,40.146,0,0,0-6.687-5.183,37.122,37.122,0,0,0-6.642-3.149,29.208,29.208,0,0,0-10.3-1.854,26.067,26.067,0,0,0-6.023.369,48.845,48.845,0,0,0-5.394,1.419,44.893,44.893,0,0,0-8.186,3.905,48.145,48.145,0,0,0-9.792,8.682,17.046,17.046,0,0,1-1.625,1.712.655.655,0,0,1-.9-.4c-.2-.511-.144-.587,1.956-2.96a48.145,48.145,0,0,1,5.583-5.4,45.371,45.371,0,0,1,5.107-3.622c.269-.142.754-.426,1.086-.625a43.092,43.092,0,0,1,5.287-2.449c.862-.322,2.585-.86,3.815-1.183A31.031,31.031,0,0,1,581.458,345.284Zm0,0" transform="translate(-329.001 -311.637)" fill="#727272" fill-rule="evenodd"/>
      <path id="Path_516" data-name="Path 516" d="M810.743,324.456a39.824,39.824,0,0,1,7.028,2.563c.511.284.727.652.61.993-.1.265-.512.634-.7.634a13.622,13.622,0,0,1-1.4-.558,34.787,34.787,0,0,0-6.526-2.137c-.7-.152-.925-.3-1.14-.748a.8.8,0,0,1,.278-.964C809.11,324.078,809.361,324.106,810.743,324.456Zm0,0" transform="translate(-553.038 -293.684)" fill="#727272" fill-rule="evenodd"/>
      <path id="Path_517" data-name="Path 517" d="M648.38,319.5a1.234,1.234,0,0,1,.79.851.958.958,0,0,1-.216.445l-.216.265h-3.312a36.489,36.489,0,0,0-12.772,2.27,47.1,47.1,0,0,0-5.395,2.421,9.211,9.211,0,0,1-1.409.653c-.179,0-.467-.293-.638-.643-.09-.18-.081-.274.054-.52.233-.416,2.594-1.664,5.053-2.686a40.024,40.024,0,0,1,12.746-3.083C644.3,319.4,648.076,319.416,648.38,319.5Zm0,0" transform="translate(-396.065 -289.646)" fill="#727272" fill-rule="evenodd"/>
      <path id="Path_518" data-name="Path 518" d="M644.845,313.09a1.1,1.1,0,0,1,.234.425,1.073,1.073,0,0,1-.709.88,13.978,13.978,0,0,1-2.81.993,1.107,1.107,0,0,1-.52-.87.529.529,0,0,1,.251-.473,7.653,7.653,0,0,1,2.037-.965c.4-.113.763-.227.808-.236A.585.585,0,0,1,644.845,313.09Zm0,0" transform="translate(-409.637 -283.982)" fill="#727272" fill-rule="evenodd"/>
      <path id="Path_519" data-name="Path 519" d="M696.947,293.33a34.017,34.017,0,0,1,7.576,1.1c1.9.473,2.253.681,2.253,1.315a.8.8,0,0,1-.718.709,9.184,9.184,0,0,1-1.329-.274,37.831,37.831,0,0,0-11.7-1.249,33.568,33.568,0,0,0-7.494,1.154c-.844.2-1.634.369-1.751.369-.574,0-.852-.917-.421-1.372.412-.445,5.314-1.437,8.069-1.645A32.361,32.361,0,0,1,696.947,293.33Zm0,0" transform="translate(-445.713 -267.258)" fill="#727272" fill-rule="evenodd"/>
      <path id="Path_520" data-name="Path 520" d="M522.757,477.445a1.038,1.038,0,0,1,.171,1.744.848.848,0,0,1-1.312-.054,1.058,1.058,0,0,1,.032-1.477A.855.855,0,0,1,522.757,477.445Zm0,0" transform="translate(-307.117 -424.744)" fill="#727272" fill-rule="evenodd"/>
      <path id="Path_521" data-name="Path 521" d="M496.659,553.613a1.038,1.038,0,0,1,.171,1.744.849.849,0,0,1-1.312-.054,1.058,1.058,0,0,1,.032-1.477A.855.855,0,0,1,496.659,553.613Zm0,0" transform="translate(-284.789 -489.91)" fill="#727272" fill-rule="evenodd"/>
      <path id="Path_522" data-name="Path 522" d="M519.541,562.717a.749.749,0,0,1,.124,1.259.613.613,0,0,1-.947-.038.764.764,0,0,1,.023-1.066A.617.617,0,0,1,519.541,562.717Zm0,0" transform="translate(-304.705 -497.727)" fill="#727272" fill-rule="evenodd"/>
      <path id="Path_523" data-name="Path 523" d="M501.835,595.968a.627.627,0,0,1,.1,1.054.513.513,0,0,1-.794-.032.641.641,0,0,1,.02-.893A.517.517,0,0,1,501.835,595.968Zm0,0" transform="translate(-289.699 -526.186)" fill="#727272" fill-rule="evenodd"/>
      <path id="Path_524" data-name="Path 524" d="M497.029,619.538a.628.628,0,0,1,.1,1.054.513.513,0,0,1-.793-.032.64.64,0,0,1,.02-.893.516.516,0,0,1,.67-.129Zm0,0" transform="translate(-285.588 -546.352)" fill="#727272" fill-rule="evenodd"/>
      <path id="Path_525" data-name="Path 525" d="M491.35,642.2a1.038,1.038,0,0,1,.17,1.744.848.848,0,0,1-1.312-.054,1.059,1.059,0,0,1,.032-1.477A.855.855,0,0,1,491.35,642.2Zm0,0" transform="translate(-280.246 -565.701)" fill="#727272" fill-rule="evenodd"/>
      <path id="Path_526" data-name="Path 526" d="M494.232,682.542a.627.627,0,0,1,.1,1.054.513.513,0,0,1-.793-.032.64.64,0,0,1,.02-.893.516.516,0,0,1,.67-.129Zm0,0" transform="translate(-283.195 -600.256)" fill="#727272" fill-rule="evenodd"/>
      <g id="Group_11198" data-name="Group 11198" transform="translate(198.723 28.822)">
        <g transform="matrix(1, 0, 0, 1, -18.72, -2.82)" filter="url(#Path_555)">
          <path id="Path_555-2" data-name="Path 555" d="M740.919,319.749q3.169-2.852,6.848-6.145l19.017-16.994q2.879-2.569,4.092-3.548c.777-.625.3.017-.393.787q-1.066,1.251-4.059,4.129l-1.69,1.591q-.837.767-22.153,20.663-9.433,8.762-20,18.533l-1.688,1.506-1.38,1.131-1.111.813a8.851,8.851,0,0,1-1.577.887l-1.712,1.039" transform="translate(-650.55 -289.99)" fill="#fa3a67"/>
        </g>
        <g transform="matrix(1, 0, 0, 1, -18.72, -2.82)" filter="url(#Path_551)">
          <path id="Path_551-2" data-name="Path 551" d="M304.989,724.611c-11.852,10.941-20.085,18.272-25.592,23.4q-3.122,2.9-6.728,6.276l-18.613,17.433q-2.814,2.64-3.9,3.76c-.69.719-.009.3.82-.322q1.341-.951,4.474-3.678l1.735-1.542q.838-.766,22.547-20.234,9.565-8.619,20.235-18.273l1.649-1.548,1.249-1.273.907-1.034a8.841,8.841,0,0,0,1.022-1.491l.192-1.474" transform="translate(-231.15 -679.01)" fill="#fa3a67"/>
        </g>
      </g>
      <path id="Path_527" data-name="Path 527" d="M493.864,725.582a1.039,1.039,0,0,1,.171,1.745.849.849,0,0,1-1.312-.054,1.059,1.059,0,0,1,.032-1.477A.855.855,0,0,1,493.864,725.582Zm0,0" transform="translate(-282.398 -637.041)" fill="#727272" fill-rule="evenodd"/>
      <path id="Path_528" data-name="Path 528" d="M500.013,759.5a.766.766,0,0,1,.126,1.285.624.624,0,0,1-.965-.039.781.781,0,0,1,.024-1.088A.628.628,0,0,1,500.013,759.5Zm0,0" transform="translate(-287.98 -666.086)" fill="#727272" fill-rule="evenodd"/>
      <path id="Path_529" data-name="Path 529" d="M890.83,326.5a.976.976,0,0,1,.16,1.637.8.8,0,0,1-1.23-.05,1,1,0,0,1,.031-1.387.8.8,0,0,1,1.039-.2Zm0,0" transform="translate(-622.312 -295.604)" fill="#727272" fill-rule="evenodd"/>
      <path id="Path_530" data-name="Path 530" d="M865.662,315.088a.976.976,0,0,1,.16,1.637.8.8,0,0,1-1.23-.05,1,1,0,0,1,.03-1.387A.8.8,0,0,1,865.662,315.088Zm0,0" transform="translate(-600.768 -285.844)" fill="#727272" fill-rule="evenodd"/>
      <path id="Path_531" data-name="Path 531" d="M618.861,331.937a.814.814,0,0,1,.133,1.366.663.663,0,0,1-1.026-.042.831.831,0,0,1,.025-1.157.668.668,0,0,1,.867-.168Zm0,0" transform="translate(-389.697 -300.273)" fill="#727272" fill-rule="evenodd"/>
    </g>
    <g id="Group_11197" data-name="Group 11197" transform="translate(180 140)">
      <g id="Group_11128" data-name="Group 11128" transform="translate(0 0.75)">
        <g id="Group_11127" data-name="Group 11127" transform="translate(0 0)">
          <g id="Group_11126" data-name="Group 11126">
            <path id="Path_442" data-name="Path 442" d="M5.266-104.652a8.8,8.8,0,0,1,1.121-4.454,7.878,7.878,0,0,1,3.128-3.049,9.354,9.354,0,0,1,4.552-1.094,8.929,8.929,0,0,1,5.333,1.586,7.591,7.591,0,0,1,2.967,4.322H17.681a3.7,3.7,0,0,0-1.485-1.609,4.293,4.293,0,0,0-2.181-.553,4.147,4.147,0,0,0-3.192,1.322,4.991,4.991,0,0,0-1.221,3.53,5,5,0,0,0,1.221,3.534,4.15,4.15,0,0,0,3.192,1.32,4.287,4.287,0,0,0,2.181-.553,3.689,3.689,0,0,0,1.485-1.609h4.686A7.548,7.548,0,0,1,19.4-97.647a8.982,8.982,0,0,1-5.333,1.572,9.366,9.366,0,0,1-4.552-1.092,7.91,7.91,0,0,1-3.128-3.04A8.743,8.743,0,0,1,5.266-104.652Zm0,0" transform="translate(-5.266 113.25)" fill="#fff"/>
          </g>
        </g>
      </g>
      <g id="Group_11131" data-name="Group 11131" transform="translate(19.72 0)">
        <g id="Group_11130" data-name="Group 11130" transform="translate(0)">
          <g id="Group_11129" data-name="Group 11129">
            <path id="Path_443" data-name="Path 443" d="M14.154-118.047v17.8H9.891v-17.8Zm0,0" transform="translate(-9.891 118.047)" fill="#fff"/>
          </g>
        </g>
      </g>
      <g id="Group_11138" data-name="Group 11138" transform="translate(26.098 3.69)">
        <g id="Group_11133" data-name="Group 11133" transform="translate(0 0)">
          <g id="Group_11132" data-name="Group 11132">
            <path id="Path_444" data-name="Path 444" d="M18.43-83.351a10.806,10.806,0,0,1-.076,1.245H8.706a2.9,2.9,0,0,0,.835,1.983,2.555,2.555,0,0,0,1.81.686,2.238,2.238,0,0,0,2.217-1.348H18.1a6.226,6.226,0,0,1-1.26,2.469,6.3,6.3,0,0,1-2.281,1.722,7.324,7.324,0,0,1-3.065.623,7.475,7.475,0,0,1-3.641-.872,6.223,6.223,0,0,1-2.493-2.493,7.707,7.707,0,0,1-.9-3.79,7.793,7.793,0,0,1,.884-3.79,6.13,6.13,0,0,1,2.481-2.493,7.516,7.516,0,0,1,3.665-.872,7.442,7.442,0,0,1,3.59.847,6.089,6.089,0,0,1,2.454,2.418A7.331,7.331,0,0,1,18.43-83.351Zm-4.364-1.123a2.19,2.19,0,0,0-.747-1.744,2.751,2.751,0,0,0-1.871-.65,2.694,2.694,0,0,0-1.807.625,2.76,2.76,0,0,0-.908,1.768Zm0,0" transform="translate(-4.469 90.281)" fill="#fff"/>
          </g>
        </g>
        <g id="Group_11135" data-name="Group 11135" transform="translate(15.357 0)">
          <g id="Group_11134" data-name="Group 11134" transform="translate(0)">
            <path id="Path_445" data-name="Path 445" d="M4.469-83.153a8.331,8.331,0,0,1,.808-3.763,6.037,6.037,0,0,1,2.208-2.493,5.764,5.764,0,0,1,3.116-.872,5.356,5.356,0,0,1,2.581.6,4.42,4.42,0,0,1,1.707,1.57v-1.971h4.264v13.912H14.889v-1.971a4.589,4.589,0,0,1-1.734,1.573,5.351,5.351,0,0,1-2.579.6,5.66,5.66,0,0,1-3.092-.884,6.122,6.122,0,0,1-2.208-2.52A8.411,8.411,0,0,1,4.469-83.153Zm10.42.027A3.479,3.479,0,0,0,14-85.644a2.871,2.871,0,0,0-2.154-.923,2.9,2.9,0,0,0-2.159.911,3.435,3.435,0,0,0-.884,2.5,3.534,3.534,0,0,0,.884,2.532,2.86,2.86,0,0,0,2.159.935A2.871,2.871,0,0,0,14-80.608,3.483,3.483,0,0,0,14.889-83.126Zm0,0" transform="translate(-4.469 90.281)" fill="#fff"/>
          </g>
        </g>
        <g id="Group_11137" data-name="Group 11137" transform="translate(33.133 0.049)">
          <g id="Group_11136" data-name="Group 11136" transform="translate(0 0)">
            <path id="Path_446" data-name="Path 446" d="M18.367-89.969a5.044,5.044,0,0,1,3.9,1.585,6.169,6.169,0,0,1,1.46,4.349v8.127H19.488v-7.553a3.052,3.052,0,0,0-.723-2.169,2.533,2.533,0,0,0-1.944-.774,2.532,2.532,0,0,0-1.944.774,3.049,3.049,0,0,0-.723,2.169v7.553H9.891V-89.82h4.264v1.846A4.472,4.472,0,0,1,15.9-89.432,5.553,5.553,0,0,1,18.367-89.969Zm0,0" transform="translate(-9.891 89.969)" fill="#fff"/>
          </g>
        </g>
      </g>
      <g id="Group_11141" data-name="Group 11141" transform="translate(81.148 0.948)">
        <g id="Group_11140" data-name="Group 11140" transform="translate(0 0)">
          <g id="Group_11139" data-name="Group 11139">
            <path id="Path_447" data-name="Path 447" d="M16.447-111.984a10.483,10.483,0,0,1,4.835,1.058,7.706,7.706,0,0,1,3.2,2.965,8.443,8.443,0,0,1,1.136,4.4,8.466,8.466,0,0,1-1.136,4.392,7.661,7.661,0,0,1-3.216,2.977,10.516,10.516,0,0,1-4.823,1.056H9.891v-16.852Zm-.274,13.3a5.261,5.261,0,0,0,3.763-1.272,4.716,4.716,0,0,0,1.346-3.6,4.8,4.8,0,0,0-1.346-3.626,5.2,5.2,0,0,0-3.763-1.3h-2.02v9.793Zm0,0" transform="translate(-9.891 111.984)" fill="#ff3a67"/>
          </g>
        </g>
      </g>
      <g id="Group_11144" data-name="Group 11144" transform="translate(98.365 3.69)">
        <g id="Group_11143" data-name="Group 11143" transform="translate(0 0)">
          <g id="Group_11142" data-name="Group 11142">
            <path id="Path_448" data-name="Path 448" d="M4.469-83.153a8.331,8.331,0,0,1,.808-3.763,6.037,6.037,0,0,1,2.208-2.493,5.764,5.764,0,0,1,3.116-.872,5.356,5.356,0,0,1,2.581.6,4.42,4.42,0,0,1,1.707,1.57v-1.971h4.264v13.912H14.889v-1.971a4.589,4.589,0,0,1-1.734,1.573,5.351,5.351,0,0,1-2.579.6,5.66,5.66,0,0,1-3.092-.884,6.122,6.122,0,0,1-2.208-2.52A8.411,8.411,0,0,1,4.469-83.153Zm10.42.027A3.479,3.479,0,0,0,14-85.644a2.871,2.871,0,0,0-2.154-.923,2.9,2.9,0,0,0-2.159.911,3.435,3.435,0,0,0-.884,2.5,3.534,3.534,0,0,0,.884,2.532,2.86,2.86,0,0,0,2.159.935A2.871,2.871,0,0,0,14-80.608,3.483,3.483,0,0,0,14.889-83.126Zm0,0" transform="translate(-4.469 90.281)" fill="#ff3a67"/>
          </g>
        </g>
      </g>
      <g id="Group_11147" data-name="Group 11147" transform="translate(115.018 1.148)">
        <g id="Group_11146" data-name="Group 11146" transform="translate(0 0)">
          <g id="Group_11145" data-name="Group 11145">
            <path id="Path_449" data-name="Path 449" d="M12.12-97.53v3.478H9.952a5.452,5.452,0,0,1-3.617-1.091,4.423,4.423,0,0,1-1.294-3.565v-5.326h-1.7v-3.408h1.7V-110.7H9.3v3.262H12.1v3.408H9.3v5.375a1.1,1.1,0,0,0,.3.865,1.508,1.508,0,0,0,1,.263Zm0,0" transform="translate(-3.344 110.703)" fill="#ff3a67"/>
          </g>
        </g>
      </g>
      <g id="Group_11150" data-name="Group 11150" transform="translate(125.316 3.69)">
        <g id="Group_11149" data-name="Group 11149" transform="translate(0 0)">
          <g id="Group_11148" data-name="Group 11148">
            <path id="Path_450" data-name="Path 450" d="M4.469-83.153a8.331,8.331,0,0,1,.808-3.763,6.037,6.037,0,0,1,2.208-2.493,5.764,5.764,0,0,1,3.116-.872,5.356,5.356,0,0,1,2.581.6,4.42,4.42,0,0,1,1.707,1.57v-1.971h4.264v13.912H14.889v-1.971a4.589,4.589,0,0,1-1.734,1.573,5.351,5.351,0,0,1-2.579.6,5.66,5.66,0,0,1-3.092-.884,6.122,6.122,0,0,1-2.208-2.52A8.411,8.411,0,0,1,4.469-83.153Zm10.42.027A3.479,3.479,0,0,0,14-85.644a2.871,2.871,0,0,0-2.154-.923,2.9,2.9,0,0,0-2.159.911,3.435,3.435,0,0,0-.884,2.5,3.534,3.534,0,0,0,.884,2.532,2.86,2.86,0,0,0,2.159.935A2.871,2.871,0,0,0,14-80.608,3.483,3.483,0,0,0,14.889-83.126Zm0,0" transform="translate(-4.469 90.281)" fill="#ff3a67"/>
          </g>
        </g>
      </g>
    </g>
  </g>
</svg>
