<svg xmlns="http://www.w3.org/2000/svg" width="240" height="120" viewBox="0 0 240 120">
  <g id="Group_452" data-name="Group 452" transform="translate(23550 3844)">
    <rect id="Rectangle_861" data-name="Rectangle 861" width="240" height="120" transform="translate(-23550 -3844)" fill="none"/>
    <g id="google_cloud-ar21" transform="translate(-23550 -3840.762)">
      <path id="Path_93" data-name="Path 93" d="M86.013,20.714l2.461.043,6.687-6.687.323-2.834a30.041,30.041,0,0,0-48.976,14.6A3.62,3.62,0,0,1,48.8,25.7l13.365-2.2s.688-1.14,1.033-1.069a16.7,16.7,0,0,1,22.817-1.721Z" transform="translate(44.465 -3.633)" fill="#ea4335"/>
      <path id="Path_94" data-name="Path 94" d="M89.923,21.788A30.1,30.1,0,0,0,80.852,7.166l-9.471,9.471A16.674,16.674,0,0,1,77.61,29.63V31.3a8.348,8.348,0,0,1,0,16.7H60.91l-1.672,1.678V59.7l1.672,1.663h16.7A21.7,21.7,0,0,0,89.9,21.788Z" transform="translate(59.123 0.435)" fill="#4285f4"/>
      <path id="Path_95" data-name="Path 95" d="M59.255,39.915h16.7V26.55h-16.7a8.262,8.262,0,0,1-3.436-.747l-2.41.738-6.687,6.687-.585,2.259a21.429,21.429,0,0,0,13.12,4.432Z" transform="translate(44.036 21.897)" fill="#34a853"/>
      <path id="Path_96" data-name="Path 96" d="M63.858,12.175A21.708,21.708,0,0,0,50.746,51.191l9.682-9.682A8.348,8.348,0,1,1,71.465,30.472l9.682-9.682a21.68,21.68,0,0,0-17.3-8.606Z" transform="translate(39.434 6.203)" fill="#fbbc05"/>
      <path id="Path_97" data-name="Path 97" d="M20.952,69.576A16.251,16.251,0,0,1,9.175,64.735a16.154,16.154,0,0,1,0-23.271,16.267,16.267,0,0,1,11.778-4.843,15.749,15.749,0,0,1,11.293,4.54l-3.178,3.178a11.446,11.446,0,0,0-8.118-3.217,11.294,11.294,0,0,0-8.382,3.5,12.178,12.178,0,0,0,0,16.956,11.3,11.3,0,0,0,8.382,3.5,11.2,11.2,0,0,0,8.326-3.3,9.514,9.514,0,0,0,2.453-5.669H20.959v-4.5H36.114a14.375,14.375,0,0,1,.215,2.8q0,6.635-3.9,10.532a15.178,15.178,0,0,1-11.5,4.626Zm35.221-3.012a10.984,10.984,0,0,1-15.112,0,10.816,10.816,0,0,1,0-15.147,10.984,10.984,0,0,1,15.112,0,10.816,10.816,0,0,1,0,15.147ZM44.4,63.595a5.794,5.794,0,0,0,8.447,0,6.934,6.934,0,0,0,.019-9.23,5.884,5.884,0,0,0-8.486,0,6.934,6.934,0,0,0,.019,9.23Zm35.012,2.969a10.984,10.984,0,0,1-15.112,0,10.816,10.816,0,0,1,0-15.147,10.984,10.984,0,0,1,15.112,0,10.816,10.816,0,0,1,0,15.147ZM67.63,63.595a5.794,5.794,0,0,0,8.447,0,6.934,6.934,0,0,0,.019-9.23,5.884,5.884,0,0,0-8.486,0,6.934,6.934,0,0,0,.019,9.23ZM94.681,79.129a9.343,9.343,0,0,1-5.947-1.893,10.933,10.933,0,0,1-3.455-4.385l4.062-1.685a6.634,6.634,0,0,0,2.007,2.655,5.111,5.111,0,0,0,3.339,1.123,5.424,5.424,0,0,0,4.159-1.607,6.535,6.535,0,0,0,1.506-4.626V67.205h-.161a6.78,6.78,0,0,1-5.585,2.414,9.7,9.7,0,0,1-7.115-3.094,10.241,10.241,0,0,1-3.055-7.479,10.37,10.37,0,0,1,3.055-7.537A9.68,9.68,0,0,1,94.606,48.4a7.619,7.619,0,0,1,3.275.684,6.681,6.681,0,0,1,2.311,1.685h.161V49.057h4.424V68.113q0,5.551-2.836,8.3a10.015,10.015,0,0,1-7.257,2.754ZM95,65.419a5.185,5.185,0,0,0,4.043-1.827,6.615,6.615,0,0,0,1.627-4.566A6.762,6.762,0,0,0,99.047,54.4,5.164,5.164,0,0,0,95,52.555,5.523,5.523,0,0,0,90.825,54.4a6.511,6.511,0,0,0-1.73,4.626,6.384,6.384,0,0,0,1.73,4.566A5.542,5.542,0,0,0,95,65.421Zm17.647-27.68v31.2h-4.662V37.74Zm12.78,31.834a10.135,10.135,0,0,1-7.517-3.055,10.331,10.331,0,0,1-3.016-7.556,10.444,10.444,0,0,1,2.913-7.638,9.574,9.574,0,0,1,7.1-2.978,8.983,8.983,0,0,1,3.578.7,8.434,8.434,0,0,1,2.732,1.807,12.565,12.565,0,0,1,1.73,2.149,13.167,13.167,0,0,1,1.046,2.091l.484,1.2-14.187,5.878a5.393,5.393,0,0,0,5.146,3.217,6.08,6.08,0,0,0,5.224-2.933l3.615,2.414a11.789,11.789,0,0,1-3.417,3.255,9.718,9.718,0,0,1-5.43,1.442Zm-5.908-10.93,9.467-3.937a3.226,3.226,0,0,0-1.506-1.627,4.862,4.862,0,0,0-2.453-.62,5.5,5.5,0,0,0-3.836,1.685,5.673,5.673,0,0,0-1.71,4.5Zm39.438,10.93A14.7,14.7,0,0,1,144,54.539,14.7,14.7,0,0,1,158.96,39.5a13.315,13.315,0,0,1,10.571,4.7l-2.571,2.5a9.682,9.682,0,0,0-8-3.658,10.974,10.974,0,0,0-11.2,11.5A11.148,11.148,0,0,0,151,62.865a10.905,10.905,0,0,0,7.961,3.178,11.277,11.277,0,0,0,8.821-4.178l2.571,2.571a14.006,14.006,0,0,1-4.949,3.759,15.1,15.1,0,0,1-6.463,1.381Zm18.409-.637h-3.7V40.156h3.7ZM183.4,51.6a10.332,10.332,0,0,1,14.553,0,10.472,10.472,0,0,1,2.855,7.5,10.453,10.453,0,0,1-2.855,7.5,10.332,10.332,0,0,1-14.553,0,10.472,10.472,0,0,1-2.855-7.5,10.453,10.453,0,0,1,2.855-7.5Zm2.754,12.658a6.211,6.211,0,0,0,9.036,0,6.99,6.99,0,0,0,1.911-5.164,7.064,7.064,0,0,0-1.911-5.164,6.211,6.211,0,0,0-9.036,0,6.99,6.99,0,0,0-1.911,5.164A7.064,7.064,0,0,0,186.154,64.253Zm35.113,4.684h-3.539V66.2h-.161A6.61,6.61,0,0,1,215,68.571a7.54,7.54,0,0,1-3.658.99,6.922,6.922,0,0,1-5.6-2.253,9.032,9.032,0,0,1-1.911-6.031V49.216h3.7V60.671q0,5.512,4.862,5.508a4.518,4.518,0,0,0,3.739-1.846,6.734,6.734,0,0,0,1.446-4.262V49.216h3.7v19.7Zm12.539.639a8.665,8.665,0,0,1-6.592-3.016,10.638,10.638,0,0,1-2.771-7.479,10.638,10.638,0,0,1,2.771-7.479,8.668,8.668,0,0,1,6.592-3.016,8.459,8.459,0,0,1,4.045.962,6.74,6.74,0,0,1,2.674,2.414h.161l-.161-2.732v-9.08h3.7V68.937h-3.539V66.2h-.161a6.836,6.836,0,0,1-2.674,2.414,8.518,8.518,0,0,1-4.045.955Zm.6-3.378a5.9,5.9,0,0,0,4.443-1.93A7.206,7.206,0,0,0,240.68,59.1a7.162,7.162,0,0,0-1.829-5.164,6.036,6.036,0,0,0-8.867.019,7.192,7.192,0,0,0-1.846,5.164,7.188,7.188,0,0,0,1.846,5.164,5.874,5.874,0,0,0,4.424,1.949Z" transform="translate(-4.226 34.352)" fill="#5f6368"/>
    </g>
  </g>
</svg>
