<svg xmlns="http://www.w3.org/2000/svg" width="240" height="120" viewBox="0 0 240 120">
  <g id="k_labs" transform="translate(-838 -1996)">
    <rect id="Rectangle_1061" data-name="Rectangle 1061" width="240" height="120" transform="translate(838 1996)" fill="none"/>
    <g id="k_medialabs" transform="translate(881.088 2015)">
      <g id="_2108069123584" transform="translate(0 0)">
        <path id="Path_28887" data-name="Path 28887" d="M33.057,71.755l-25.835-29a8.723,8.723,0,0,1-1.364-1.872H5.626V82H0V0H5.626V38.659h.232a9.1,9.1,0,0,1,1.485-1.993L40.531,0h7.382l-36,39.752,28.955,32H33.057Z" transform="translate(0 0)" fill="#34495e"/>
        <path id="Path_28888" data-name="Path 28888" d="M82.243,163.934,77.58,158.7h7.875l4.736,5.234Z" transform="translate(-40.053 -81.934)" fill="#1abc9c"/>
        <path id="Path_28889" data-name="Path 28889" d="M175.843,61.134h-2.467V52.282a6.7,6.7,0,0,0-.788-3.7,3.009,3.009,0,0,0-2.66-1.146,3.3,3.3,0,0,0-2.685,1.441,5.533,5.533,0,0,0-1.113,3.468v8.789h-2.467V51.982q0-4.549-3.512-4.547a3.234,3.234,0,0,0-2.675,1.359,5.626,5.626,0,0,0-1.055,3.55v8.789H153.95V45.718h2.472v2.443h.063a5.221,5.221,0,0,1,4.784-2.8,4.478,4.478,0,0,1,2.757.876,4.419,4.419,0,0,1,1.611,2.312,5.5,5.5,0,0,1,5.118-3.188q5.094,0,5.089,6.274Z" transform="translate(-79.481 -23.419)" fill="#34495e"/>
        <path id="_1" data-name="1" d="M220.127,54.043H209.239a5.8,5.8,0,0,0,1.388,3.981,4.8,4.8,0,0,0,3.642,1.4,7.58,7.58,0,0,0,4.794-1.717v2.317a8.955,8.955,0,0,1-5.379,1.475,6.519,6.519,0,0,1-5.132-2.1,8.585,8.585,0,0,1-1.872-5.906,8.44,8.44,0,0,1,2.041-5.868,6.55,6.55,0,0,1,5.069-2.264,5.794,5.794,0,0,1,4.678,1.954,8.13,8.13,0,0,1,1.659,5.432Zm-2.53-2.09a5.045,5.045,0,0,0-1.03-3.333,3.522,3.522,0,0,0-2.825-1.185,3.994,3.994,0,0,0-2.965,1.248,5.651,5.651,0,0,0-1.5,3.27Z" transform="translate(-106.705 -23.419)" fill="#34495e"/>
        <path id="_2" data-name="2" d="M254.237,53.612h-2.472V50.995h-.058a6.218,6.218,0,0,1-9.94.909,8.46,8.46,0,0,1-1.746-5.64,9.215,9.215,0,0,1,1.93-6.124,6.34,6.34,0,0,1,5.132-2.3,4.945,4.945,0,0,1,4.624,2.5h.058V30.79h2.472Zm-2.472-6.966V44.368a4.4,4.4,0,0,0-1.233-3.159,4.13,4.13,0,0,0-3.13-1.3,4.268,4.268,0,0,0-3.555,1.654,7.246,7.246,0,0,0-1.3,4.581,6.548,6.548,0,0,0,1.243,4.208,4.076,4.076,0,0,0,3.338,1.543,4.206,4.206,0,0,0,3.347-1.495,5.532,5.532,0,0,0,1.287-3.758Z" transform="translate(-123.918 -15.896)" fill="#34495e"/>
        <path id="_3" data-name="3" d="M280.651,34.577a1.532,1.532,0,0,1-1.122-.45,1.5,1.5,0,0,1-.469-1.142,1.594,1.594,0,0,1,1.591-1.616,1.6,1.6,0,0,1,1.156.464,1.606,1.606,0,0,1,0,2.278A1.576,1.576,0,0,1,280.651,34.577Zm1.209,19.334h-2.472V38.5h2.472Z" transform="translate(-144.073 -16.196)" fill="#34495e"/>
        <path id="_4" data-name="4" d="M305,61.134h-2.472V58.725h-.058a5.162,5.162,0,0,1-4.745,2.772,5.064,5.064,0,0,1-3.6-1.219,4.213,4.213,0,0,1-1.3-3.236c0-2.878,1.693-4.561,5.089-5.026l4.62-.648q0-3.933-3.178-3.933a7.6,7.6,0,0,0-5.026,1.9V46.8a9.522,9.522,0,0,1,5.239-1.441q5.435,0,5.437,5.751V61.134Zm-2.472-7.8-3.715.513a5.959,5.959,0,0,0-2.593.851,2.454,2.454,0,0,0-.871,2.157,2.359,2.359,0,0,0,.8,1.848,3.1,3.1,0,0,0,2.143.716,3.979,3.979,0,0,0,3.033-1.287,4.588,4.588,0,0,0,1.2-3.265Z" transform="translate(-151.177 -23.419)" fill="#34495e"/>
        <path id="Path_28890" data-name="Path 28890" d="M156.362,113.612H153.89V90.79h2.472Z" transform="translate(-79.451 -46.873)" fill="#34495e"/>
        <path id="_1-2" data-name="1" d="M179.15,121.129h-2.472V118.72h-.053a5.176,5.176,0,0,1-4.745,2.767,5.075,5.075,0,0,1-3.609-1.214,4.234,4.234,0,0,1-1.3-3.241q0-4.317,5.089-5.026l4.62-.648c0-2.617-1.059-3.933-3.173-3.933a7.592,7.592,0,0,0-5.031,1.9V106.8a9.525,9.525,0,0,1,5.239-1.446q5.435,0,5.437,5.751Zm-2.472-7.8-3.715.518a5.873,5.873,0,0,0-2.588.851,2.456,2.456,0,0,0-.876,2.157,2.354,2.354,0,0,0,.808,1.848,3.106,3.106,0,0,0,2.143.711,3.982,3.982,0,0,0,3.033-1.282,4.614,4.614,0,0,0,1.195-3.265Z" transform="translate(-86.203 -54.39)" fill="#34495e"/>
        <path id="_2-2" data-name="2" d="M204.3,111.382h-.063v2.23H201.77V90.79h2.472V100.9h.063a5.835,5.835,0,0,1,5.331-3.072,5.653,5.653,0,0,1,4.639,2.07,8.531,8.531,0,0,1,1.679,5.548,9.548,9.548,0,0,1-1.882,6.2,6.266,6.266,0,0,1-5.147,2.322A5.056,5.056,0,0,1,204.3,111.382Zm-.063-6.221v2.157a4.578,4.578,0,0,0,1.243,3.246,4.428,4.428,0,0,0,6.666-.387,7.887,7.887,0,0,0,1.277-4.774,6.19,6.19,0,0,0-1.195-4.034,3.938,3.938,0,0,0-3.217-1.461,4.386,4.386,0,0,0-3.463,1.5A5.49,5.49,0,0,0,204.242,105.161Z" transform="translate(-104.17 -46.873)" fill="#34495e"/>
        <path id="_3-2" data-name="3" d="M237.32,120.573v-2.651a7.307,7.307,0,0,0,4.441,1.49c2.167,0,3.255-.726,3.255-2.167a1.891,1.891,0,0,0-.281-1.045,2.812,2.812,0,0,0-.755-.759,5.5,5.5,0,0,0-1.117-.595c-.426-.174-.88-.363-1.374-.551a17.407,17.407,0,0,1-1.8-.822,5.5,5.5,0,0,1-1.3-.929,3.528,3.528,0,0,1-.779-1.185,4.108,4.108,0,0,1-.266-1.553,3.722,3.722,0,0,1,.493-1.92,4.508,4.508,0,0,1,1.325-1.4,6.181,6.181,0,0,1,1.891-.851,8.279,8.279,0,0,1,2.191-.285,8.889,8.889,0,0,1,3.584.692v2.5a6.959,6.959,0,0,0-3.913-1.117,4.574,4.574,0,0,0-1.253.16,3.13,3.13,0,0,0-.958.445,2.164,2.164,0,0,0-.614.682,1.818,1.818,0,0,0-.218.885,2.106,2.106,0,0,0,.218,1.006,2.265,2.265,0,0,0,.643.726,4.59,4.59,0,0,0,1.021.571c.4.169.856.353,1.374.556a19.718,19.718,0,0,1,1.833.8,6.572,6.572,0,0,1,1.388.938,3.719,3.719,0,0,1,.88,1.195,3.907,3.907,0,0,1,.3,1.611,3.818,3.818,0,0,1-.5,1.988,4.314,4.314,0,0,1-1.345,1.4,6.188,6.188,0,0,1-1.945.832,9.7,9.7,0,0,1-2.307.266,8.707,8.707,0,0,1-4.121-.914Z" transform="translate(-122.524 -54.39)" fill="#34495e"/>
        <g id="Group_15203" data-name="Group 15203" transform="translate(57.8 14.831)">
          <path id="Path_28891" data-name="Path 28891" d="M119.49,83.008V30.66h1.166V83.008Z" transform="translate(-119.49 -30.66)" fill="#1abc9c"/>
        </g>
      </g>
    </g>
  </g>
</svg>
