<svg xmlns="http://www.w3.org/2000/svg" width="240" height="120" viewBox="0 0 240 120">
  <g id="swa_logo_c" transform="translate(1 20.002)">
    <g id="_2712648768464" transform="translate(0 -0.002)">
      <path id="Path_28842" data-name="Path 28842" d="M47.358,11.255a5.807,5.807,0,0,0-1.949-.65,2.248,2.248,0,0,1-1.949-2.3V3.165a2.332,2.332,0,0,0-3.484-2.008L12.046,17.337a2.3,2.3,0,0,0-1.122,2.008v9.684A1.816,1.816,0,0,1,9.153,30.8a5.974,5.974,0,0,0-2.657.709C2.893,33.458,0,38.477,0,42.846s2.893,6.318,6.5,4.37a12.11,12.11,0,0,0,3.071-2.539.752.752,0,0,1,1.358.472l.059,6.791a2.287,2.287,0,0,0,3.425,2.008L17.6,52.117a3.462,3.462,0,0,0,1.772-3.248c-.059-4.311,1.24-10.57,8.8-14.408,3.779-1.949,7.972-.531,8.444,4.252a1.012,1.012,0,0,0,1.535.768l4.133-2.3a2.358,2.358,0,0,0,1.181-2.008V28.5A1.818,1.818,0,0,1,46.3,27.021l.886.531c3.071,1.653,6.614-.59,6.614-4.96S50.9,13.2,47.358,11.255Z" transform="translate(0 4.169)" fill="#01569b" fill-rule="evenodd"/>
      <path id="Path_28843" data-name="Path 28843" d="M38.881,21.5,31.2,17.075a1.9,1.9,0,0,1-.827-2.362,7.125,7.125,0,0,0,.472-2.657c0-4.311-2.893-9.389-6.5-11.338-3.543-1.89-6.436.059-6.436,4.429a12.268,12.268,0,0,0,.472,3.189.629.629,0,0,1-.945.709L11.9,5.561A2.317,2.317,0,0,0,8.352,7.568v3.543A3.519,3.519,0,0,0,10.36,14.3c2.6,1.3,6.968,4.724,7.027,12.814,0,5.315-4.488,8.8-8.267,7.677a.952.952,0,0,0-1.24.886v3.6a2.382,2.382,0,0,0,1.181,2.067l5.433,2.893a1.44,1.44,0,0,1,.059,2.48c-1.535.945-2.953,2.657-1.417,5.551,1.89,3.543,5.787,5.551,10.1,5.551a6.141,6.141,0,0,0,4.547-1.594,5.059,5.059,0,0,1,6.318-1l2.48,1.476a2.332,2.332,0,0,0,3.484-2.008V23.512A2.358,2.358,0,0,0,38.881,21.5Z" transform="translate(38.651 0.002)" fill="#80d4f9" fill-rule="evenodd"/>
      <path id="Path_28844" data-name="Path 28844" d="M61.782,30.609a2.3,2.3,0,0,0-.059-4.015l-2.657-1.535c-.827-.472-3.012,0-3.779.472-1.535.945-4.015,1.3-6.614,1.3a13.957,13.957,0,0,1-12.46-7.795,4.773,4.773,0,0,1,.591-4.606,1.984,1.984,0,0,0-.65-2.834l-2.126-1.3a2.4,2.4,0,0,0-2.362,0L25.7,13.9a2.248,2.248,0,0,1-3.366-1.949V11.89c0-4.311-2.893-6.318-6.436-4.37-3.6,1.89-6.5,6.968-6.5,11.338a8.765,8.765,0,0,0,.177,1.949,3.809,3.809,0,0,1-1.89,4.015L3.676,27.066a2.326,2.326,0,0,0,0,4.015l3.838,2.185a.932.932,0,0,1-.177,1.653c-2.6.886-3.484,3.248-1.949,6.082,1.89,3.543,6.968,6.436,11.279,6.436,3.366,0,5.315-1.712,5.137-4.193a.95.95,0,0,1,1.417-.886l8.031,4.606a2.293,2.293,0,0,0,2.3,0L61.782,30.609Z" transform="translate(12.385 33.236)" fill="#00b1ff"/>
      <path id="Path_28845" data-name="Path 28845" d="M16.58,32.156l1.594-.413a8.545,8.545,0,0,0,4.252,6.614,17.929,17.929,0,0,0,9.566,2.3c4.015,0,7.2-.768,9.448-2.3a7.206,7.206,0,0,0,3.425-6.318,7.939,7.939,0,0,0-.472-2.716A5.736,5.736,0,0,0,42.857,27.2c-.709-.591-1.417-1.122-2.008-1.535A13.372,13.372,0,0,0,37.9,24.42c-1.3-.413-2.362-.768-3.13-.945-.768-.236-2.008-.531-3.661-.945s-2.953-.709-4.015-1A34.629,34.629,0,0,1,23.43,20.11a12.212,12.212,0,0,1-3.307-1.949A8.924,8.924,0,0,1,18,15.327a8.247,8.247,0,0,1-.886-3.9,8.649,8.649,0,0,1,3.661-7.322C23.194,2.336,26.559,1.45,30.811,1.45a18.611,18.611,0,0,1,10.57,2.775A9.154,9.154,0,0,1,45.455,12.2v.354H43.8v-.3a7.675,7.675,0,0,0-3.6-6.791C37.838,3.871,34.708,3.1,30.811,3.1c-3.779,0-6.732.709-8.858,2.244a7.146,7.146,0,0,0-3.13,6.082,6.373,6.373,0,0,0,.768,3.189,8,8,0,0,0,1.771,2.362,10.113,10.113,0,0,0,2.893,1.712c1.24.531,2.362.945,3.366,1.3,1.063.3,2.362.59,3.956,1,1.949.472,3.484.886,4.606,1.181a30.11,30.11,0,0,1,3.956,1.417,11.786,11.786,0,0,1,3.484,1.949,9.143,9.143,0,0,1,2.067,2.716,7.933,7.933,0,0,1,.886,3.779,8.671,8.671,0,0,1-3.9,7.5c-2.539,1.772-6.141,2.716-10.747,2.716-4.311,0-7.913-.886-10.629-2.657a9.919,9.919,0,0,1-4.724-7.44Z" transform="translate(81.325 7.124)" fill="#fff"/>
      <path id="_1" data-name="1" d="M37.688,41.33H35.68L22.63,1.53H24.4L36.743,39.2,49.084,1.53h1.89L63.315,39.2,75.657,1.53h1.771l-13.05,39.8H62.371L50.029,3.833Z" transform="translate(111 7.516)" fill="#fff"/>
      <path id="_2" data-name="2" d="M51,1.53h1.949l18.719,39.8H69.895L65.112,31.291H38.775L34.052,41.33H32.28L51,1.53Zm1,1.712-12.46,26.4h24.8L52,3.242Z" transform="translate(158.334 7.516)" fill="#fff"/>
      <path id="Path_28846" data-name="Path 28846" d="M16.57,16.392l.768-.177v.059a1.176,1.176,0,0,0,.65,1.063,3.177,3.177,0,0,0,1.594.413,2.862,2.862,0,0,0,1.594-.413.98.98,0,0,0,.472-.886.5.5,0,0,0-.118-.413.6.6,0,0,0-.3-.354c-.059-.118-.236-.177-.472-.3a5.434,5.434,0,0,0-.531-.177c-.177-.059-.354-.118-.65-.236a5.779,5.779,0,0,1-1.712-.827,1.378,1.378,0,0,1-.591-1.181,1.811,1.811,0,0,1,.827-1.594,4.036,4.036,0,0,1,2.008-.472,3.374,3.374,0,0,1,2.008.531,1.9,1.9,0,0,1,.768,1.594h-.768a1.124,1.124,0,0,0-.591-1.063,2.519,2.519,0,0,0-1.417-.354,2.767,2.767,0,0,0-1.594.354,1.331,1.331,0,0,0-.472.945,1.1,1.1,0,0,0,.118.413c.118.118.177.236.3.3.059.118.236.177.472.3s.413.177.531.236c.118,0,.354.118.65.177a6.223,6.223,0,0,1,1.771.827,1.57,1.57,0,0,1,.591,1.24,1.781,1.781,0,0,1-.827,1.535,3.5,3.5,0,0,1-2.008.531,4.2,4.2,0,0,1-2.244-.591A1.684,1.684,0,0,1,16.57,16.392Z" transform="translate(81.276 53.476)" fill="#fff"/>
      <path id="_1-2" data-name="1" d="M17.92,15.034A4.113,4.113,0,0,1,19.1,12.14a3.969,3.969,0,0,1,2.953-1.24,3.383,3.383,0,0,1,2.48,1,3.293,3.293,0,0,1,.945,2.421A4.218,4.218,0,0,1,24.3,17.218a3.841,3.841,0,0,1-2.893,1.24,3.424,3.424,0,0,1-2.539-1A3.659,3.659,0,0,1,17.92,15.034Zm4.074-3.425a3.179,3.179,0,0,0-2.3,1,3.293,3.293,0,0,0-.945,2.421,2.785,2.785,0,0,0,.709,1.89,2.5,2.5,0,0,0,2.008.768,3.15,3.15,0,0,0,2.244-1,3.31,3.31,0,0,0,1-2.362,2.877,2.877,0,0,0-.768-1.949,2.667,2.667,0,0,0-1.949-.768Z" transform="translate(87.898 53.476)" fill="#fff"/>
      <path id="_2-2" data-name="2" d="M21.922,14.385l.177-.768h1.417l.177-.886c.236-1.594,1-2.362,2.244-2.362a3.124,3.124,0,0,1,1.771.531l-.354.65A2.179,2.179,0,0,0,26,11.138a1.6,1.6,0,0,0-1,.354A2.655,2.655,0,0,0,24.4,12.85l-.118.768H27l-.118.768H24.166l-1.24,7.027c-.3,1.594-1.063,2.362-2.3,2.362A3.72,3.72,0,0,1,18.97,23.3l.354-.65a2.579,2.579,0,0,0,1.24.413,1.425,1.425,0,0,0,1-.413,2.244,2.244,0,0,0,.59-1.358l1.24-6.909H21.922Zm5.61,0,.118-.768h1.417l.413-2.362.827-.236-.413,2.6h2.893l-.118.768H29.717l-.65,3.956a4.36,4.36,0,0,0-.118.709,1.139,1.139,0,0,0,1.3,1.24,2.874,2.874,0,0,0,1.3-.354l.236.709a4,4,0,0,1-1.594.413c-1.358,0-2.008-.65-2.008-1.949a3.632,3.632,0,0,1,.059-.768l.709-3.956H27.532Z" transform="translate(93.048 50.877)" fill="#fff"/>
      <path id="_3" data-name="3" d="M23.586,18.183h-1L21.46,10.92h.827l.886,6.377L26.42,10.92h1l.945,6.377L31.5,10.92h.886l-3.661,7.263h-1l-.945-6.259Z" transform="translate(105.261 53.574)" fill="#fff"/>
      <path id="_4" data-name="4" d="M29.276,18.281l.236-1.358a3.362,3.362,0,0,1-2.893,1.535,2.992,2.992,0,0,1-2.3-1,3.352,3.352,0,0,1-.886-2.362,4.2,4.2,0,0,1,1.122-2.953,3.594,3.594,0,0,1,2.775-1.24,3.179,3.179,0,0,1,1.831.531,3.092,3.092,0,0,1,1.063,1.476l.354-1.89h.768l-1.3,7.263h-.768Zm-2.48-.591a3.05,3.05,0,0,0,2.244-1,3.352,3.352,0,0,0,.886-2.362,3.1,3.1,0,0,0-.65-1.949,2.627,2.627,0,0,0-1.89-.768,2.823,2.823,0,0,0-2.244,1.063,3.511,3.511,0,0,0-.945,2.362,2.682,2.682,0,0,0,.709,1.89A2.409,2.409,0,0,0,26.8,17.691Z" transform="translate(114.924 53.476)" fill="#fff"/>
      <path id="_5" data-name="5" d="M27.107,11.018l-.472,2.6a5.912,5.912,0,0,1,1.476-1.771,4.367,4.367,0,0,1,2.067-.945L30,11.786a4.979,4.979,0,0,0-2.362,1.3,3.876,3.876,0,0,0-1.3,2.244l-.531,2.953H25.04l1.24-7.263Z" transform="translate(122.821 53.476)" fill="#fff"/>
      <path id="_6" data-name="6" d="M31.934,16.746l.413.59a4.365,4.365,0,0,1-2.953,1.122,3.424,3.424,0,0,1-2.539-1,3.5,3.5,0,0,1-.886-2.421,4.007,4.007,0,0,1,1.181-2.953A4.29,4.29,0,0,1,30.163,10.9a3.5,3.5,0,0,1,2.008.531,1.846,1.846,0,0,1,.709,1.417A1.985,1.985,0,0,1,31.7,14.62a7.176,7.176,0,0,1-3.6.709H26.738a2.767,2.767,0,0,0,.827,1.712,2.711,2.711,0,0,0,1.89.65A3.811,3.811,0,0,0,31.934,16.746Zm-5.2-2.126h1.3a7.929,7.929,0,0,0,3.071-.472c.65-.354,1-.768,1-1.24a1.064,1.064,0,0,0-.531-.945,2.519,2.519,0,0,0-1.417-.354,3.509,3.509,0,0,0-2.244.827A3.217,3.217,0,0,0,26.738,14.62Z" transform="translate(127.383 53.476)" fill="#fff"/>
      <path id="_7" data-name="7" d="M30.266,18.183h-1L28.14,10.92h.827l.945,6.377,3.248-6.377H34.1l.945,6.377,3.13-6.377h.886L35.4,18.183h-1l-.945-6.259Z" transform="translate(138.027 53.574)" fill="#fff"/>
      <path id="_8" data-name="8" d="M36.074,16.746l.413.59a4.217,4.217,0,0,1-2.893,1.122,3.244,3.244,0,0,1-2.539-1,3.293,3.293,0,0,1-.945-2.421A4.135,4.135,0,0,1,34.362,10.9a3.182,3.182,0,0,1,1.949.531,1.745,1.745,0,0,1,.768,1.417A2.1,2.1,0,0,1,35.9,14.62a7.329,7.329,0,0,1-3.6.709H30.937a2.7,2.7,0,0,0,.768,1.712,2.817,2.817,0,0,0,1.89.65,3.811,3.811,0,0,0,2.48-.945ZM30.937,14.62h1.3a7.594,7.594,0,0,0,3.012-.472c.709-.354,1-.768,1-1.24a1.064,1.064,0,0,0-.531-.945,2.194,2.194,0,0,0-1.358-.354,3.549,3.549,0,0,0-2.3.827A3.159,3.159,0,0,0,30.937,14.62Z" transform="translate(147.69 53.476)" fill="#fff"/>
      <path id="_9" data-name="9" d="M34.138,10.4l-.768,4.429a3.239,3.239,0,0,1,1.3-1.063,2.925,2.925,0,0,1,1.594-.413,2.863,2.863,0,0,1,2.3.945,3.353,3.353,0,0,1,.886,2.362,4.1,4.1,0,0,1-1.122,2.953,3.65,3.65,0,0,1-2.775,1.3,3.081,3.081,0,0,1-1.831-.591A2.54,2.54,0,0,1,32.662,18.9l-.354,1.831H31.54L33.371,10.4Zm1.949,3.661a3.15,3.15,0,0,0-2.244,1,3.5,3.5,0,0,0-.886,2.421,2.549,2.549,0,0,0,.65,1.89,2.409,2.409,0,0,0,1.89.768,3.051,3.051,0,0,0,2.244-1,3.6,3.6,0,0,0,.886-2.421,2.733,2.733,0,0,0-.65-1.89,2.627,2.627,0,0,0-1.89-.768Z" transform="translate(154.704 51.024)" fill="#fff"/>
      <path id="_10" data-name="10" d="M39.815,18.281l.236-1.358a3.511,3.511,0,0,1-2.893,1.535,3.03,3.03,0,0,1-2.362-1,3.353,3.353,0,0,1-.886-2.362,4.478,4.478,0,0,1,1.122-2.953,3.682,3.682,0,0,1,2.775-1.24,3.051,3.051,0,0,1,1.831.531,2.846,2.846,0,0,1,1.122,1.476l.3-1.89h.768l-1.24,7.263h-.768Zm-2.539-.591a2.957,2.957,0,0,0,2.244-1,3.16,3.16,0,0,0,.945-2.362,2.829,2.829,0,0,0-.709-1.949,2.489,2.489,0,0,0-1.831-.768,3.026,3.026,0,0,0-2.3,1.063,3.455,3.455,0,0,0-.886,2.362,2.682,2.682,0,0,0,.709,1.89A2.208,2.208,0,0,0,37.276,17.691Z" transform="translate(166.329 53.476)" fill="#fff"/>
      <path id="_11" data-name="11" d="M37.979,11.018l-.236,1.358A3.38,3.38,0,0,1,40.636,10.9a2.863,2.863,0,0,1,2.3.945,3.455,3.455,0,0,1,.886,2.362A4.1,4.1,0,0,1,42.7,17.159a3.561,3.561,0,0,1-2.775,1.3,3.051,3.051,0,0,1-2.893-2.008l-.768,4.488H35.44l1.771-9.92h.768Zm2.48.591a3.05,3.05,0,0,0-2.244,1,3.5,3.5,0,0,0-.886,2.421,2.93,2.93,0,0,0,.65,1.89,2.409,2.409,0,0,0,1.89.768,2.957,2.957,0,0,0,2.244-1,3.659,3.659,0,0,0,.945-2.421,2.786,2.786,0,0,0-.709-1.89A2.529,2.529,0,0,0,40.459,11.609Z" transform="translate(173.833 53.476)" fill="#fff"/>
      <path id="_12" data-name="12" d="M39.609,11.018l-.236,1.358A3.31,3.31,0,0,1,42.266,10.9a2.945,2.945,0,0,1,2.3.945,3.455,3.455,0,0,1,.886,2.362,4.1,4.1,0,0,1-1.122,2.953,3.65,3.65,0,0,1-2.775,1.3,3.051,3.051,0,0,1-2.893-2.008l-.827,4.488H37.07l1.771-9.92h.768Zm2.48.591a3.051,3.051,0,0,0-2.244,1,3.5,3.5,0,0,0-.886,2.421,2.93,2.93,0,0,0,.65,1.89,2.409,2.409,0,0,0,1.89.768,2.957,2.957,0,0,0,2.244-1,3.659,3.659,0,0,0,.945-2.421,2.786,2.786,0,0,0-.709-1.89A2.627,2.627,0,0,0,42.089,11.609Z" transform="translate(181.829 53.476)" fill="#fff"/>
      <path id="Path_28847" data-name="Path 28847" d="M60.7,10.844H15.88V9.25H60.7Z" transform="translate(77.891 45.383)" fill="#01569b" fill-rule="evenodd"/>
      <path id="Path_28848" data-name="Path 28848" d="M68.348,10.844H23.47V9.25H68.348Z" transform="translate(115.12 45.383)" fill="#80d4f9" fill-rule="evenodd"/>
      <path id="Path_28849" data-name="Path 28849" d="M75.889,10.844H31.07V9.25H75.889Z" transform="translate(152.399 45.383)" fill="#00b1ff"/>
      <rect id="Rectangle_1049" data-name="Rectangle 1049" width="240" height="120" transform="translate(-1 -20)" fill="none"/>
    </g>
  </g>
</svg>
