<?xml version="1.0" encoding="UTF-8"?>
<!DOCTYPE svg PUBLIC "-//W3C//DTD SVG 1.1//EN" "http://www.w3.org/Graphics/SVG/1.1/DTD/svg11.dtd">
<!-- Creator: CorelDRAW 2020 (64-Bit) -->
<svg xmlns="http://www.w3.org/2000/svg" xml:space="preserve" width="200px" height="60px" version="1.1" shape-rendering="geometricPrecision" text-rendering="geometricPrecision" image-rendering="optimizeQuality" fill-rule="evenodd" clip-rule="evenodd"
viewBox="0 0 9.278 2.783"
 xmlns:xlink="http://www.w3.org/1999/xlink"
 xmlns:xodm="http://www.corel.com/coreldraw/odm/2003">
 <g id="Layer_x0020_1">
  <metadata id="CorelCorpID_0Corel-Layer"/>
  <g id="_3043125154576">
   <path fill="white" fill-rule="nonzero" d="M4.315 1.838l-0.734 -1.601 -0.793 1.603c-0.004,0.01 -0.013,0.009 -0.022,0.009l-0.004 0 -0.034 -0.001c-0.003,0 -0.006,0 -0.009,-0.002 -0.002,-0.001 -0.003,-0.002 -0.004,-0.003 -0.001,-0.002 -0.002,-0.004 -0.002,-0.006 0,-0.003 0.001,-0.005 0.002,-0.008l0.845 -1.711c0.003,-0.005 0.006,-0.008 0.01,-0.01 0.003,-0.002 0.007,-0.003 0.011,-0.003 0.003,0 0.007,0.001 0.011,0.002 0.004,0.002 0.008,0.006 0.01,0.011 0.05,0.089 0.478,1.032 0.683,1.483 0.052,0.116 0.09,0.2 0.103,0.227 0.003,0.006 0.001,0.011 -0.002,0.014 -0.003,0.002 -0.008,0.003 -0.013,0.003l-0.031 0.002 -0.004 0c-0.009,0 -0.019,0.001 -0.023,-0.009z"/>
   <path fill="white" d="M8.006 0.105l0 0.036c0,0.009 -0.008,0.017 -0.017,0.017l-0.474 0 0 1.656c0,0.008 -0.008,0.016 -0.016,0.016l-0.034 0c-0.009,0 -0.016,-0.008 -0.016,-0.016l0 -1.656 -0.475 0c-0.009,0 -0.017,-0.008 -0.017,-0.017l0 -0.036c0,-0.009 0.007,-0.017 0.017,-0.017l1.015 0c0.009,0 0.017,0.008 0.017,0.017z"/>
   <path fill="white" fill-rule="nonzero" d="M5.317 0.09c0.236,0.004 0.448,0.103 0.601,0.26 0.154,0.157 0.248,0.373 0.248,0.611 0,0.24 -0.096,0.458 -0.253,0.616 -0.156,0.157 -0.372,0.255 -0.61,0.255 -0.162,-0.001 -0.324,0.003 -0.485,0.004 -0.011,0 -0.02,-0.009 -0.02,-0.02l0 -1.708c0,-0.011 0.009,-0.02 0.02,-0.02 0.097,0 0.194,0 0.29,0.001 0.07,0.001 0.14,0.001 0.209,0.001zm-0.192 0.068c-0.084,-0.001 -0.17,-0.002 -0.254,-0.001l0 1.609 0.425 -0.001c0.214,0.001 0.414,-0.085 0.564,-0.237 0.145,-0.146 0.233,-0.347 0.233,-0.567 0,-0.218 -0.086,-0.417 -0.228,-0.563 -0.14,-0.144 -0.334,-0.235 -0.552,-0.239 -0.063,0 -0.125,-0.001 -0.188,-0.001z"/>
   <rect fill="white" x="6.507" y="0.088" width="0.073" height="1.747" rx="0.019" ry="0.02"/>
   <g>
    <path fill="white" fill-rule="nonzero" d="M0 2.199l0.056 0 0 0.051 0.002 0c0.011,-0.017 0.026,-0.032 0.046,-0.044 0.02,-0.012 0.041,-0.018 0.064,-0.018 0.025,0 0.048,0.006 0.067,0.019 0.019,0.012 0.033,0.028 0.041,0.049 0.012,-0.021 0.029,-0.037 0.049,-0.049 0.02,-0.013 0.044,-0.019 0.071,-0.019 0.04,0 0.071,0.012 0.091,0.037 0.021,0.024 0.031,0.057 0.031,0.099l0 0.224 -0.058 0 0 -0.215c0,-0.032 -0.007,-0.056 -0.02,-0.07 -0.013,-0.015 -0.033,-0.022 -0.059,-0.022 -0.017,0 -0.033,0.005 -0.047,0.015 -0.015,0.01 -0.026,0.023 -0.034,0.04 -0.008,0.017 -0.012,0.035 -0.012,0.055l0 0.197 -0.058 0 0 -0.214c0,-0.033 -0.007,-0.057 -0.02,-0.071 -0.014,-0.015 -0.033,-0.022 -0.059,-0.022 -0.017,0 -0.033,0.005 -0.047,0.015 -0.014,0.01 -0.026,0.024 -0.034,0.041 -0.008,0.017 -0.012,0.036 -0.012,0.055l0 0.196 -0.058 0 0 -0.349zm1.014 0.36c-0.025,0 -0.048,-0.005 -0.068,-0.015 -0.021,-0.01 -0.036,-0.024 -0.047,-0.042 -0.011,-0.017 -0.017,-0.037 -0.017,-0.06 0,-0.036 0.014,-0.065 0.042,-0.086 0.028,-0.021 0.064,-0.031 0.106,-0.031 0.021,0 0.041,0.002 0.059,0.007 0.018,0.004 0.032,0.009 0.042,0.015l0 -0.021c0,-0.026 -0.01,-0.047 -0.028,-0.062 -0.018,-0.016 -0.041,-0.024 -0.069,-0.024 -0.02,0 -0.038,0.004 -0.055,0.013 -0.016,0.008 -0.029,0.02 -0.039,0.035l-0.044 -0.033c0.014,-0.021 0.033,-0.037 0.057,-0.049 0.024,-0.012 0.051,-0.018 0.08,-0.018 0.048,0 0.085,0.013 0.112,0.037 0.028,0.025 0.041,0.059 0.041,0.102l0 0.221 -0.055 0 0 -0.05 -0.003 0c-0.01,0.017 -0.025,0.031 -0.046,0.043 -0.02,0.012 -0.042,0.018 -0.068,0.018zm0.006 -0.052c0.02,0 0.038,-0.005 0.055,-0.015 0.017,-0.01 0.03,-0.023 0.04,-0.04 0.011,-0.017 0.016,-0.035 0.016,-0.055 -0.011,-0.008 -0.025,-0.014 -0.041,-0.018 -0.016,-0.005 -0.033,-0.007 -0.051,-0.007 -0.032,0 -0.056,0.007 -0.072,0.02 -0.017,0.013 -0.025,0.03 -0.025,0.051 0,0.019 0.007,0.035 0.022,0.047 0.015,0.011 0.033,0.017 0.056,0.017zm0.551 -0.449l0.059 0 0 0.308 0.165 -0.167 0.074 0 0 0.003 -0.137 0.138 0.141 0.205 0 0.003 -0.07 0 -0.113 -0.168 -0.06 0.06 0 0.108 -0.059 0 0 -0.49zm0.808 0.501c-0.034,0 -0.064,-0.008 -0.09,-0.024 -0.027,-0.016 -0.048,-0.038 -0.063,-0.066 -0.015,-0.028 -0.022,-0.06 -0.022,-0.095 0,-0.034 0.007,-0.065 0.021,-0.093 0.014,-0.028 0.034,-0.051 0.059,-0.068 0.026,-0.016 0.056,-0.025 0.09,-0.025 0.034,0 0.064,0.008 0.089,0.023 0.025,0.015 0.045,0.036 0.058,0.063 0.014,0.027 0.021,0.058 0.021,0.093 0,0.006 -0.001,0.012 -0.002,0.017l-0.278 0c0.002,0.027 0.008,0.049 0.02,0.067 0.011,0.019 0.026,0.032 0.043,0.041 0.018,0.009 0.036,0.014 0.056,0.014 0.045,0 0.079,-0.021 0.104,-0.063l0.049 0.024c-0.015,0.028 -0.036,0.051 -0.061,0.067 -0.026,0.016 -0.058,0.025 -0.094,0.025zm0.101 -0.223c-0.001,-0.014 -0.005,-0.029 -0.013,-0.043 -0.007,-0.015 -0.019,-0.027 -0.034,-0.037 -0.016,-0.01 -0.036,-0.015 -0.06,-0.015 -0.027,0 -0.051,0.009 -0.07,0.026 -0.019,0.018 -0.031,0.041 -0.037,0.069l0.214 0zm0.86 0.19l-0.145 -0.327 0.063 0 0.11 0.259 0.002 0 0.106 -0.259 0.063 0 -0.217 0.496 -0.06 0 0.078 -0.169zm0.699 0.033c-0.034,0 -0.065,-0.009 -0.092,-0.025 -0.028,-0.016 -0.049,-0.039 -0.065,-0.067 -0.015,-0.028 -0.023,-0.059 -0.023,-0.094 0,-0.034 0.008,-0.065 0.023,-0.093 0.016,-0.029 0.037,-0.051 0.065,-0.067 0.027,-0.017 0.058,-0.025 0.092,-0.025 0.035,0 0.066,0.008 0.093,0.025 0.028,0.016 0.049,0.038 0.065,0.067 0.015,0.028 0.023,0.059 0.023,0.093 0,0.035 -0.008,0.066 -0.023,0.094 -0.016,0.028 -0.037,0.051 -0.065,0.067 -0.027,0.016 -0.058,0.025 -0.093,0.025zm0 -0.053c0.022,0 0.042,-0.005 0.061,-0.016 0.018,-0.011 0.033,-0.026 0.044,-0.046 0.012,-0.02 0.017,-0.044 0.017,-0.071 0,-0.027 -0.005,-0.05 -0.017,-0.07 -0.011,-0.02 -0.026,-0.035 -0.044,-0.046 -0.019,-0.011 -0.039,-0.016 -0.061,-0.016 -0.021,0 -0.041,0.005 -0.06,0.016 -0.019,0.011 -0.034,0.026 -0.045,0.046 -0.011,0.02 -0.017,0.043 -0.017,0.07 0,0.027 0.006,0.051 0.017,0.071 0.011,0.02 0.026,0.035 0.045,0.046 0.019,0.011 0.039,0.016 0.06,0.016zm0.676 0.053c-0.042,0 -0.074,-0.013 -0.096,-0.037 -0.022,-0.025 -0.034,-0.059 -0.034,-0.103l0 -0.22 0.059 0 0 0.211c0,0.033 0.007,0.057 0.023,0.073 0.015,0.015 0.035,0.023 0.061,0.023 0.02,0 0.037,-0.005 0.052,-0.016 0.016,-0.01 0.028,-0.024 0.036,-0.041 0.009,-0.017 0.013,-0.034 0.013,-0.053l0 -0.197 0.058 0 0 0.349 -0.055 0 0 -0.051 -0.003 0c-0.01,0.017 -0.025,0.032 -0.046,0.044 -0.021,0.012 -0.044,0.018 -0.068,0.018z"/>
    <path fill="#F15D22" fill-rule="nonzero" d="M5.559 2.199l0.062 0 0.109 0.28 0.001 0 0.11 -0.28 0.061 0 -0.143 0.349 -0.059 0 -0.141 -0.349zm0.73 -0.064c-0.012,0 -0.022,-0.004 -0.03,-0.013 -0.008,-0.008 -0.012,-0.018 -0.012,-0.029 0,-0.011 0.004,-0.021 0.012,-0.029 0.008,-0.008 0.018,-0.012 0.03,-0.012 0.011,0 0.021,0.004 0.029,0.012 0.009,0.008 0.013,0.018 0.013,0.029 0,0.011 -0.004,0.021 -0.012,0.029 -0.008,0.009 -0.018,0.013 -0.03,0.013zm-0.029 0.064l0.058 0 0 0.349 -0.058 0 0 -0.349zm0.576 0.36c-0.037,0 -0.069,-0.009 -0.094,-0.027 -0.025,-0.017 -0.043,-0.04 -0.054,-0.067l0.053 -0.023c0.008,0.021 0.021,0.037 0.038,0.048 0.018,0.012 0.037,0.017 0.057,0.017 0.022,0 0.041,-0.004 0.057,-0.013 0.015,-0.009 0.023,-0.021 0.023,-0.038 0,-0.014 -0.006,-0.026 -0.019,-0.035 -0.012,-0.009 -0.031,-0.017 -0.058,-0.023l-0.043 -0.011c-0.028,-0.007 -0.051,-0.018 -0.068,-0.035 -0.018,-0.016 -0.027,-0.037 -0.027,-0.063 0,-0.02 0.006,-0.038 0.018,-0.053 0.012,-0.016 0.028,-0.027 0.048,-0.036 0.021,-0.008 0.042,-0.012 0.066,-0.012 0.03,0 0.058,0.007 0.082,0.02 0.024,0.013 0.041,0.032 0.051,0.055l-0.051 0.024c-0.015,-0.031 -0.043,-0.047 -0.083,-0.047 -0.019,0 -0.036,0.005 -0.05,0.013 -0.015,0.009 -0.022,0.021 -0.022,0.034 0,0.013 0.005,0.023 0.015,0.031 0.01,0.008 0.025,0.015 0.045,0.02l0.051 0.013c0.035,0.008 0.061,0.021 0.078,0.038 0.017,0.018 0.026,0.038 0.026,0.063 0,0.021 -0.006,0.04 -0.018,0.056 -0.013,0.017 -0.03,0.029 -0.051,0.038 -0.021,0.008 -0.044,0.013 -0.07,0.013zm0.538 -0.424c-0.012,0 -0.021,-0.004 -0.03,-0.013 -0.008,-0.008 -0.012,-0.018 -0.012,-0.029 0,-0.011 0.004,-0.021 0.012,-0.029 0.009,-0.008 0.018,-0.012 0.03,-0.012 0.011,0 0.021,0.004 0.03,0.012 0.008,0.008 0.012,0.018 0.012,0.029 0,0.011 -0.004,0.021 -0.012,0.029 -0.008,0.009 -0.018,0.013 -0.03,0.013zm-0.029 0.064l0.058 0 0 0.349 -0.058 0 0 -0.349zm0.632 0.36c-0.027,0 -0.051,-0.006 -0.072,-0.018 -0.021,-0.013 -0.037,-0.027 -0.048,-0.045l-0.002 0 0 0.052 -0.056 0 0 -0.49 0.058 0 0 0.144 -0.002 0.049 0.002 0c0.011,-0.018 0.027,-0.033 0.048,-0.045 0.021,-0.012 0.045,-0.018 0.072,-0.018 0.031,0 0.06,0.008 0.085,0.024 0.026,0.016 0.046,0.038 0.061,0.066 0.015,0.029 0.022,0.06 0.022,0.095 0,0.036 -0.007,0.068 -0.022,0.096 -0.015,0.028 -0.035,0.05 -0.061,0.066 -0.025,0.016 -0.054,0.024 -0.085,0.024zm-0.007 -0.053c0.02,0 0.039,-0.005 0.057,-0.016 0.018,-0.011 0.032,-0.027 0.043,-0.047 0.011,-0.021 0.016,-0.044 0.016,-0.07 0,-0.026 -0.005,-0.049 -0.016,-0.069 -0.011,-0.02 -0.025,-0.036 -0.043,-0.047 -0.018,-0.011 -0.037,-0.016 -0.057,-0.016 -0.02,0 -0.039,0.005 -0.057,0.016 -0.018,0.011 -0.032,0.027 -0.043,0.047 -0.01,0.02 -0.015,0.043 -0.015,0.069 0,0.027 0.005,0.05 0.015,0.07 0.011,0.02 0.025,0.036 0.043,0.047 0.018,0.011 0.037,0.016 0.057,0.016zm0.543 -0.448l0.059 0 0 0.49 -0.059 0 0 -0.49zm0.602 0.501c-0.033,0 -0.063,-0.008 -0.09,-0.024 -0.027,-0.016 -0.047,-0.038 -0.062,-0.066 -0.015,-0.028 -0.023,-0.06 -0.023,-0.095 0,-0.034 0.007,-0.065 0.021,-0.093 0.014,-0.028 0.034,-0.051 0.06,-0.068 0.026,-0.016 0.055,-0.025 0.089,-0.025 0.035,0 0.065,0.008 0.09,0.023 0.025,0.015 0.044,0.036 0.058,0.063 0.013,0.027 0.02,0.058 0.02,0.093 0,0.006 -0.001,0.012 -0.002,0.017l-0.277 0c0.001,0.027 0.008,0.049 0.019,0.067 0.012,0.019 0.026,0.032 0.044,0.041 0.017,0.009 0.036,0.014 0.055,0.014 0.045,0 0.08,-0.021 0.104,-0.063l0.05 0.024c-0.016,0.028 -0.036,0.051 -0.062,0.067 -0.026,0.016 -0.057,0.025 -0.094,0.025zm0.101 -0.223c-0.001,-0.014 -0.005,-0.029 -0.012,-0.043 -0.007,-0.015 -0.019,-0.027 -0.035,-0.037 -0.016,-0.01 -0.036,-0.015 -0.059,-0.015 -0.028,0 -0.051,0.009 -0.07,0.026 -0.019,0.018 -0.032,0.041 -0.038,0.069l0.214 0z"/>
   </g>
   <path fill="#E6E6E6" d="M2.271 0.661c0.074,0.008 0.133,0.071 0.133,0.146l0 0.854c0,0.081 -0.067,0.147 -0.148,0.147l-1.49 0c-0.082,0 -0.148,-0.066 -0.148,-0.147l0 -0.013 1.48 0c0.095,0 0.173,-0.078 0.173,-0.173l0 -0.814z"/>
   <path fill="#E6E6E6" d="M0.185 0.137l1.49 0c0.081,0 0.148,0.066 0.148,0.147l0 0.013 -1.48 0c-0.096,0 -0.174,0.078 -0.174,0.173l0 0.814c-0.074,-0.008 -0.132,-0.07 -0.132,-0.146l0 -0.854c0,-0.081 0.067,-0.147 0.148,-0.147z"/>
   <path fill="#CCCCCC" d="M0.116 0.956l0.053 0 0 0.519c0,0.095 0.078,0.173 0.174,0.173l1.046 0 0 0.081c0,0.062 -0.051,0.113 -0.114,0.113l-1.159 0c-0.063,0 -0.114,-0.051 -0.114,-0.113l0 -0.659c0,-0.063 0.051,-0.114 0.114,-0.114z"/>
   <path fill="#CCCCCC" d="M1.179 0.103l1.15 0c0.061,0 0.11,0.049 0.11,0.109l0 0.635c0,0.06 -0.049,0.109 -0.11,0.109l-0.058 0 0 -0.486c0,-0.095 -0.078,-0.173 -0.173,-0.173l-1.029 0 0 -0.085c0,-0.06 0.05,-0.109 0.11,-0.109z"/>
   <rect fill="#F15D22" x="0.169" y="0.297" width="2.102" height="1.351" rx="0.073" ry="0.173"/>
   <polygon fill="white" points="1.133,0.76 0.797,1.344 0.994,1.345 1.224,0.921 1.459,1.343 1.644,1.342 1.231,0.6 1.133,0.759 "/>
   <path fill="white" d="M8.78 0.787c0.27,0.022 0.482,0.246 0.482,0.52 0,0.288 -0.235,0.521 -0.526,0.521 -0.272,0 -0.494,-0.203 -0.524,-0.465 -0.001,-0.011 -0.004,-0.036 -0.005,-0.047 -0.001,-0.018 0.019,-0.017 0.037,-0.018 0.011,0 0.026,-0.001 0.028,0.012 0.022,0.255 0.196,0.454 0.464,0.454 0.255,0 0.462,-0.205 0.462,-0.457 0,-0.234 -0.178,-0.411 -0.406,-0.451 -0.089,-0.016 -0.149,-0.011 -0.237,-0.058 -0.117,-0.062 -0.196,-0.185 -0.196,-0.326 0,-0.205 0.169,-0.372 0.377,-0.372 0.066,0 0.128,0.017 0.181,0.046 0.012,0.006 0.041,0.023 0.047,0.033 0.006,0.011 0.006,0.069 -0.005,0.071 -0.007,0.002 -0.021,-0.016 -0.048,-0.034 -0.05,-0.033 -0.11,-0.053 -0.175,-0.053 -0.173,0 -0.313,0.138 -0.313,0.309 0,0.087 0.036,0.165 0.095,0.222 0.016,0.015 0.033,0.031 0.054,0.041 0.076,0.037 0.127,0.045 0.208,0.052z"/>
   <rect fill="none" width="9.278" height="2.783"/>
  </g>
 </g>
</svg>
