<svg xmlns="http://www.w3.org/2000/svg" width="240" height="120" viewBox="0 0 240 120">
  <g id="Group_454" data-name="Group 454" transform="translate(23552 3322)">
    <rect id="Rectangle_863" data-name="Rectangle 863" width="240" height="120" transform="translate(-23552 -3322)" fill="none"/>
    <g id="Google_2015_logo" transform="translate(-23552 -3301.6)">
      <path id="Path_80" data-name="Path 80" d="M110.858,44.742a19.8,19.8,0,0,1-39.608,0,19.8,19.8,0,0,1,39.608,0Zm-8.669,0c0-7.1-5.154-11.963-11.135-11.963s-11.135,4.86-11.135,11.963c0,7.032,5.154,11.963,11.135,11.963S102.189,51.765,102.189,44.742Z" transform="translate(-8.395 -3.166)" fill="#ea4335"/>
      <path id="Path_81" data-name="Path 81" d="M158.858,44.742a19.8,19.8,0,0,1-39.608,0,19.8,19.8,0,0,1,39.608,0Zm-8.669,0c0-7.1-5.154-11.963-11.135-11.963s-11.135,4.86-11.135,11.963c0,7.032,5.154,11.963,11.135,11.963S150.189,51.765,150.189,44.742Z" transform="translate(-13.835 -3.166)" fill="#fbbc05"/>
      <path id="Path_82" data-name="Path 82" d="M205.076,26.193V61.636c0,14.579-8.6,20.534-18.763,20.534a18.8,18.8,0,0,1-17.5-11.633l7.548-3.142c1.344,3.213,4.637,7,9.942,7,6.506,0,10.538-4.014,10.538-11.571V59.989h-.3a13.441,13.441,0,0,1-10.4,4.486c-9.871,0-18.914-8.6-18.914-19.662C167.23,33.669,176.273,25,186.144,25a13.681,13.681,0,0,1,10.4,4.415h.3V26.2h8.233Zm-7.619,18.62c0-6.951-4.637-12.034-10.538-12.034-5.981,0-10.992,5.082-10.992,12.034,0,6.88,5.011,11.891,10.992,11.891C192.82,56.7,197.457,51.693,197.457,44.813Z" transform="translate(-19.269 -3.166)" fill="#4285f4"/>
      <path id="Path_83" data-name="Path 83" d="M223.956,3V60.855H215.5V3Z" transform="translate(-24.646 -0.748)" fill="#34a853"/>
      <path id="Path_84" data-name="Path 84" d="M258.4,51.238l6.729,4.486a19.65,19.65,0,0,1-16.449,8.749A19.316,19.316,0,0,1,229.09,44.732c0-11.74,8.447-19.742,18.62-19.742,10.245,0,15.256,8.153,16.894,12.559l.9,2.243-26.391,10.93a10.047,10.047,0,0,0,9.568,5.981c4.415,0,7.477-2.172,9.72-5.465Zm-20.712-7.1,17.641-7.325c-.97-2.466-3.89-4.183-7.325-4.183A10.829,10.829,0,0,0,237.688,44.136Z" transform="translate(-26.273 -3.165)" fill="#ea4335"/>
      <path id="Path_85" data-name="Path 85" d="M31.45,36.91V28.534H59.675a27.752,27.752,0,0,1,.418,5.056c0,6.284-1.718,14.054-7.254,19.591-5.385,5.607-12.265,8.6-21.38,8.6C14.566,61.778.36,48.018.36,31.124S14.566.47,31.459.47A29.209,29.209,0,0,1,52.465,8.917l-5.91,5.91a21.35,21.35,0,0,0-15.1-5.981A21.989,21.989,0,0,0,9.465,31.124,21.989,21.989,0,0,0,31.45,53.4c8,0,12.559-3.213,15.478-6.133C49.3,44.9,50.854,41.52,51.468,36.9Z" transform="translate(-0.36 -0.47)" fill="#4285f4"/>
    </g>
  </g>
</svg>
