<svg xmlns="http://www.w3.org/2000/svg" width="240" height="120" viewBox="0 0 240 120">
  <g id="Group_465" data-name="Group 465" transform="translate(23552 2538)">
    <rect id="Rectangle_866" data-name="Rectangle 866" width="240" height="120" transform="translate(-23552 -2538)" fill="none"/>
    <g id="Microsoft_logo__2012_" data-name="Microsoft_logo_(2012)" transform="translate(-23550.799 -2503.201)">
      <path id="Path_98" data-name="Path 98" d="M126.732,13.463V44.02h-5.3V20.042h-.071L111.878,44.02h-3.537l-9.69-23.978h-.071V44.02H93.7V13.463h7.639L110.11,36.1h.141l9.266-22.634h7.215Zm4.385,2.334a2.69,2.69,0,0,1,.92-2.122,3.163,3.163,0,0,1,2.193-.849,3.1,3.1,0,0,1,2.263.849,2.94,2.94,0,0,1,.92,2.122,2.69,2.69,0,0,1-.92,2.122,3.213,3.213,0,0,1-2.263.849,2.931,2.931,0,0,1-2.193-.849A3.2,3.2,0,0,1,131.117,15.8Zm5.729,6.3V44.02h-5.163V22.093Zm15.632,18.178a5.959,5.959,0,0,0,2.546-.566,11.174,11.174,0,0,0,2.546-1.415V43.1a9.025,9.025,0,0,1-2.829,1.061,17.405,17.405,0,0,1-3.466.354,10.39,10.39,0,0,1-7.851-3.041,10.555,10.555,0,0,1-3.041-7.781,12.481,12.481,0,0,1,3.112-8.7c2.051-2.263,4.951-3.4,8.771-3.4a13.019,13.019,0,0,1,2.9.354,9.638,9.638,0,0,1,2.334.849v4.951a10.275,10.275,0,0,0-2.4-1.344,8.127,8.127,0,0,0-2.546-.5,6.451,6.451,0,0,0-4.951,1.981,7.42,7.42,0,0,0-1.839,5.376,7.077,7.077,0,0,0,1.839,5.163A6.616,6.616,0,0,0,152.479,40.271Zm19.734-18.532a5.717,5.717,0,0,1,1.132.071,7.34,7.34,0,0,1,.849.212v5.234a3.175,3.175,0,0,0-1.2-.566,7.258,7.258,0,0,0-1.91-.283,3.955,3.955,0,0,0-3.183,1.627,7.811,7.811,0,0,0-1.344,4.951V44.02h-5.163V22.093h5.163v3.466h.071a6.663,6.663,0,0,1,2.122-2.829A6.232,6.232,0,0,1,172.213,21.739Zm2.263,11.671a12.218,12.218,0,0,1,3.041-8.629q3.077-3.183,8.488-3.183c3.4,0,6.083.99,7.993,3.041a11.679,11.679,0,0,1,2.9,8.276,11.979,11.979,0,0,1-3.041,8.488,11.032,11.032,0,0,1-8.346,3.183,10.9,10.9,0,0,1-8.063-2.971A11.351,11.351,0,0,1,174.476,33.41Zm5.376-.212a7.713,7.713,0,0,0,1.556,5.234,5.654,5.654,0,0,0,4.456,1.839,5.149,5.149,0,0,0,4.315-1.839,8.261,8.261,0,0,0,1.485-5.376,8.53,8.53,0,0,0-1.485-5.376,5.9,5.9,0,0,0-8.629.071A7.748,7.748,0,0,0,179.852,33.2Zm24.756-5.3a2.245,2.245,0,0,0,.707,1.768,12.1,12.1,0,0,0,3.112,1.556,10.786,10.786,0,0,1,4.315,2.759,5.73,5.73,0,0,1,1.273,3.749,5.939,5.939,0,0,1-2.4,4.951,9.956,9.956,0,0,1-6.437,1.839,16.757,16.757,0,0,1-3.041-.354,12.24,12.24,0,0,1-2.829-.849V38.22a12.359,12.359,0,0,0,3.041,1.556,9.535,9.535,0,0,0,2.971.566,4.754,4.754,0,0,0,2.546-.5,1.736,1.736,0,0,0,.849-1.627,2.49,2.49,0,0,0-.849-1.839,13.063,13.063,0,0,0-3.254-1.7A9.728,9.728,0,0,1,200.577,32a6.013,6.013,0,0,1-1.2-3.82,6.029,6.029,0,0,1,2.334-4.881,9.343,9.343,0,0,1,6.083-1.91,11.216,11.216,0,0,1,2.546.283c.92.212,1.768.424,2.4.637v5.022a15.237,15.237,0,0,0-2.4-1.2,7.485,7.485,0,0,0-2.688-.5,3.944,3.944,0,0,0-2.263.566A2.259,2.259,0,0,0,204.608,27.893Zm11.6,5.517a12.218,12.218,0,0,1,3.041-8.629q3.077-3.183,8.488-3.183c3.4,0,6.083.99,7.993,3.041a11.679,11.679,0,0,1,2.9,8.276,11.979,11.979,0,0,1-3.042,8.488,11.032,11.032,0,0,1-8.346,3.183,10.9,10.9,0,0,1-8.063-2.971A11.658,11.658,0,0,1,216.208,33.41Zm5.376-.212a7.713,7.713,0,0,0,1.556,5.234,5.654,5.654,0,0,0,4.456,1.839,5.149,5.149,0,0,0,4.315-1.839,8.261,8.261,0,0,0,1.485-5.376,8.531,8.531,0,0,0-1.485-5.376,5.9,5.9,0,0,0-8.629.071A8.1,8.1,0,0,0,221.584,33.2Zm34.234-6.861h-7.71V44.02h-5.234V26.337H239.2V22.093h3.678V19.051a7.628,7.628,0,0,1,7.993-7.851c.637,0,1.2.071,1.7.071a3.379,3.379,0,0,1,1.273.283V16.01a8.667,8.667,0,0,0-.92-.354,4.7,4.7,0,0,0-1.485-.212,3.192,3.192,0,0,0-2.476.99,4.509,4.509,0,0,0-.849,2.971v2.617h7.71V17.071l5.163-1.556v6.507h5.234v4.244h-5.234V36.522a4.708,4.708,0,0,0,.707,2.829,2.944,2.944,0,0,0,2.334.849,3.491,3.491,0,0,0,1.061-.212,3.7,3.7,0,0,0,1.061-.5v4.244a4.933,4.933,0,0,1-1.627.5,12.257,12.257,0,0,1-2.263.212,6.39,6.39,0,0,1-4.881-1.7,7.478,7.478,0,0,1-1.627-5.234l.071-11.176Z" transform="translate(-27.424 -3.278)" fill="#737373"/>
      <g id="Group_455" data-name="Group 455">
        <rect id="Rectangle_867" data-name="Rectangle 867" width="24.19" height="24.19" fill="#f25022"/>
        <rect id="Rectangle_868" data-name="Rectangle 868" width="24.19" height="24.19" transform="translate(26.737)" fill="#7fba00"/>
        <rect id="Rectangle_869" data-name="Rectangle 869" width="24.19" height="24.19" transform="translate(0 26.737)" fill="#00a4ef"/>
        <rect id="Rectangle_870" data-name="Rectangle 870" width="24.19" height="24.19" transform="translate(26.737 26.737)" fill="#ffb900"/>
      </g>
    </g>
  </g>
</svg>
