<svg xmlns="http://www.w3.org/2000/svg" width="240" height="120" viewBox="0 0 240 120">
  <g id="monday_logo_c" transform="translate(11.674 22.38)">
    <g id="Group_15186" data-name="Group 15186" transform="translate(-11.674 12.825)">
      <path id="Path_28839" data-name="Path 28839" d="M31.473,96.718A10.605,10.605,0,0,1,22.5,80.489L41.577,50.02A10.6,10.6,0,1,1,59.549,61.275L40.466,91.744a10.592,10.592,0,0,1-8.992,4.974Z" transform="translate(-20.885 -44.668)" fill="#ff3d57"/>
      <path id="Path_28840" data-name="Path 28840" d="M45.7,96.931A10.605,10.605,0,0,1,36.7,80.7L55.8,50.234A10.6,10.6,0,1,1,73.741,61.488L54.684,91.957a10.592,10.592,0,0,1-8.992,4.974Z" transform="translate(-2.229 -44.882)" fill="#ffcb00"/>
      <ellipse id="Ellipse_1533" data-name="Ellipse 1533" cx="10.618" cy="10.352" rx="10.618" ry="10.352" transform="translate(65.719 31.34)" fill="#00d647"/>
    </g>
    <path id="Path_28841" data-name="Path 28841" d="M186.984,29.579h-6.153l-4.313,11.048-4.283-11.048H166.07L173.555,47,168.9,58.52h6.112Zm-36.955,9.688a4.77,4.77,0,0,0,4.887,4.617,4.617,4.617,0,1,0,0-9.234,4.781,4.781,0,0,0-4.887,4.617ZM159.59,49v-2.2c-1.247,1.87-4.158,2.579-5.651,2.579a9.9,9.9,0,0,1-9.9-10.1,9.9,9.9,0,0,1,9.9-10.1c1.247,0,4.158.414,5.651,2.579V29.587h5.736V49Zm-17.184,0H136.67V46.586c-.956,1.789-3.285,2.826-5.7,2.826-4.993,0-9.4-3.952-9.4-10.066,0-6.232,4.409-10.188,9.4-10.188,2.411,0,4.742,1,5.7,2.783V19.013h5.736Zm-5.864-9.769a4.493,4.493,0,1,0-8.983,0,4.443,4.443,0,0,0,4.491,4.7A4.522,4.522,0,0,0,136.542,39.229Zm-29.158-.5c0-2.974,1.538-3.952,3.576-3.952,1.955,0,3.367,1.29,3.367,3.867V49h5.779V37.4c0-5.53-2.745-8.233-7.111-8.233a6.485,6.485,0,0,0-5.613,3.242V29.581H101.6V49h5.779Zm-17.517,10.6A9.8,9.8,0,0,1,79.8,39.225a10.085,10.085,0,0,1,20.171,0A9.832,9.832,0,0,1,89.867,49.329Zm0-5.651A4.486,4.486,0,1,0,85.5,39.229,4.293,4.293,0,0,0,89.867,43.678Zm-20.439-8.9c1.7,0,3.2,1.33,3.2,3.867V49h5.736V37.95c0-5.864-2.877-8.817-7.485-8.817a6.647,6.647,0,0,0-5.821,3.453c-1.084-2.246-3.159-3.41-6.231-3.41a5.556,5.556,0,0,0-5.071,3.2V29.558h-5.77V48.972h5.779V38.725c0-2.974,1.623-3.952,3.367-3.952,1.664,0,3.159,1.29,3.2,3.739V48.991h5.779V38.725c0-2.826,1.5-3.952,3.314-3.952Z" transform="translate(41.341 0.101)" fill="#333" fill-rule="evenodd"/>
    <rect id="Rectangle_1047" data-name="Rectangle 1047" width="240" height="120" transform="translate(-11.674 -22.38)" fill="none"/>
  </g>
</svg>
